 <svg id="Path" xmlns="http://www.w3.org/2000/svg" viewBox="0 0 400 400" >
<g>
<path d="M345.41,260.63a1.77,1.77,0,0,1-.38.32c-.14,0,0,.11.16.17s.26.15.12.26a.23.23,0,0,0-.05.19c.05.17,0,.28-.16.28s-.13,0-.13.09,0,.07-.08.05-.56.27-.55.36a1.51,1.51,0,0,1-.11.56c-.06.11-.24,0-.31-.21s-.08-.16-.24-.16a.84.84,0,0,1-.26,0,.08.08,0,0,0-.1.07c0,.06.11.21.32.42s.31.34.27.37-.05.29.08.34.13.06.07.2,0,.19.09.39.16.38-.16,1-.39.94-.29,1.13a.48.48,0,0,0,.21.17c.13,0,.13,0,0,.08a.4.4,0,0,0-.33.34c0,.11-.25.35-.44.42a1.06,1.06,0,0,1-.77,0,.27.27,0,0,1-.11-.19c0-.17-.06-.36-.11-.36s0,.48.09.71.09.28-.09.26-.16,0-.16,0-.12.07-.25.09l-.26,0-.06.33c0,.18-.08.45-.1.6s-.08.34-.24.34-.28-.18-.41-.6c-.09-.27-.16-.42-.23-.44a.4.4,0,0,1-.17-.19c-.1-.18-.21-.2-.26,0a.12.12,0,0,1-.11.1c-.09,0-.11-.08,0-.13s0-.06,0-.11-.08-.06-.16,0a.24.24,0,0,0-.08.22c0,.1,0,.12-.09.11s-.12,0-.15.25-.06.36-.09.48a1.27,1.27,0,0,0,.13.82,1,1,0,0,0,.29.18c.12.06.21.11.21.14s-.16.16-.33.13l-.17,0,.14.08c.24.13.47.4.47.53a1.92,1.92,0,0,1-.2.77c-.06.07-.06.05,0-.11a2,2,0,0,1,.07-.27.58.58,0,0,0,.05-.25c0-.12,0-.16-.14-.18l-.24-.06c-.13-.06-.12.11,0,.22a.33.33,0,0,1,0,.46.36.36,0,0,1-.51-.05l-.11-.15-.09.12a.32.32,0,0,0-.07.22c0,.07,0,.16-.16.28a.44.44,0,0,0-.19.43.84.84,0,0,0,.06.36.85.85,0,0,1,.06.31v.18l.37,0a1.75,1.75,0,0,0,.53,0c.19-.06.25,0,.11.08a.37.37,0,0,1-.25.06l-.31-.07c-.18,0-.42.06-.42.18s-.05.09-.11.13-.11.1-.11.14a.37.37,0,0,1-.13.2.42.42,0,0,0-.13.23,1.67,1.67,0,0,1-.32.67s-.05.07-.05.12a.19.19,0,0,1-.12.14.29.29,0,0,0-.15.19.45.45,0,0,1-.25.36c-.12.07-.12.06-.12-.28a.85.85,0,0,1,.24-.68,2.59,2.59,0,0,0,.24-.37.56.56,0,0,0-.09-.17.43.43,0,0,1-.07-.23c0-.12-.05-.33-.11-.33a3.72,3.72,0,0,0-.83.9c0,.05.08.08.19.08s.2.1-.15.31-.32.22-.29.31,0,.15-.44.44-.48.42-.4.56a.44.44,0,0,1,.07.2.23.23,0,0,0,.12.16,1,1,0,0,1,.3.62,1.6,1.6,0,0,1-.69.3c-.23,0-.19-.15.09-.41s.23-.26.21-.28l-.26-.14a.45.45,0,0,1-.27-.27.64.64,0,0,0-.06-.16s-.45.15-.45.19-.08.08-.17.11a2.1,2.1,0,0,0-.49.38,2.37,2.37,0,0,1-.49.39.47.47,0,0,0-.21.15,2.64,2.64,0,0,1-.43.32,2.7,2.7,0,0,0-.78.76.2.2,0,0,0,0,.17c.08.09.08.1,0,.16s-.11,0-.24-.09a.41.41,0,0,0-.41-.17.5.5,0,0,0-.42.14,1.24,1.24,0,0,1-.27.22c-.09.05-.11.1-.09.17s0,.12-.08,0a.41.41,0,0,0-.14-.17,1.1,1.1,0,0,1-.23-.13.63.63,0,0,0-.69.07.59.59,0,0,1-.29.1.39.39,0,0,0-.3.14c-.13.13-.16.28-.16.87,0,.17,0,.18-.08.08a.44.44,0,0,1-.07-.21c0-.08,0-.09-.15-.06l-.44.08-.38.08c-.09,0-.09.05,0,.16a.45.45,0,0,1,.08.19c0,.07-.33.31-.41.31s0-.09,0-.22a.47.47,0,0,0,0-.27.3.3,0,0,1-.06-.18c0-.17-.09-.2-.25-.09a2.77,2.77,0,0,1-.31.21,5,5,0,0,0-.52.46c-.23.24-.37.36-.46.36s-.42.21-.42.32-.07.06-.15-.06-.11-.1-.37-.09-.54,0-.84,0c-.53,0-.53,0-.57.08a4.39,4.39,0,0,0,0,1.36c.08.2.08.23,0,.34a.79.79,0,0,0-.08.41c0,.26,0,.32-.14.43a2,2,0,0,0-.24.31c-.35.58-.83,1.33-1,1.52a.75.75,0,0,0-.18.36.91.91,0,0,1-.24.41,1.83,1.83,0,0,0-.3.5,2.5,2.5,0,0,1-.15.38c-.1.15-.11.22-.07.74s0,.58.21.68l.17.11v.9a7.27,7.27,0,0,0,.07,1.26,1.27,1.27,0,0,1,0,.67.64.64,0,0,0,.23.73,6.61,6.61,0,0,1,.79,1.79,2.38,2.38,0,0,1-.06.41,1.32,1.32,0,0,0,0,.56,4.25,4.25,0,0,0,.77,1.62c.19.21.23.3.23.46a.44.44,0,0,1-.07.27.33.33,0,0,0-.08.24.27.27,0,0,1-.14.26.26.26,0,0,0-.07.39.59.59,0,0,1,.05.35.83.83,0,0,0,.2.59c.16.25.19.35.17.48a1.72,1.72,0,0,1-.37.69,4.48,4.48,0,0,0-.64,1.23.7.7,0,0,1-.31.42c-.34.28-.37.32-.43.65,0,.16-.07.35-.09.42a.53.53,0,0,1-.42.38c-.1,0-.13,0-.13.11a1.34,1.34,0,0,1-.18.41,1.53,1.53,0,0,0-.24.78,4.6,4.6,0,0,1-.38,1.33,1.16,1.16,0,0,1-.47.1,5,5,0,0,0-.65.1c-.2.07-.23.09-.29.31a.67.67,0,0,1-.18.32c-.1.07-.1.09,0,.26a2,2,0,0,1,.1.51c0,.28,0,.34-.06.39a1.33,1.33,0,0,0-.19.24.56.56,0,0,1-.18.23c-.08,0-.11.14-.14.38s-.05.32-.11.23a.46.46,0,0,1-.08-.24c0-.08,0-.17-.05-.18s0,.07,0,.25a1.92,1.92,0,0,1-.11.56c-.14.36-.16,1.42,0,1.37s.09,0,.1,0,0,.05-.05.05-.15.1-.17.39a.75.75,0,0,0,.08.4,1,1,0,0,1,.09.48,3.18,3.18,0,0,0,.12.72c.06.2.17.55.23.77a2,2,0,0,0,.45.92.52.52,0,0,1,.18.42v.22l.1-.13.11-.13.13.15a.51.51,0,0,1,.13.37.55.55,0,0,0,0,.28,1.65,1.65,0,0,1,.1.39c.08.43.16.64.25.64a1,1,0,0,1,.26.17l.2.18,0,.36c0,.35-.05.37-.23.43a.3.3,0,0,0-.23.24c-.09.38-.1.63,0,.76s.08.32.07,1.3a11.79,11.79,0,0,0,0,1.21.81.81,0,0,1,0,.29c0,.21,0,.27.14.35a.54.54,0,0,1,.21.26c.05.1.12.18.16.18a2,2,0,0,1,.65.65.76.76,0,0,1,0,.41.61.61,0,0,0,.14.53,1.92,1.92,0,0,1,.34.92c0,.08,0,.18.13.34s.18.22.36.19.23,0,.45.19a1,1,0,0,0,.33.21c.11,0,.24.22.24.41s0,.18.14.18l.56.07.79.14a2.36,2.36,0,0,1,1,.31,1.43,1.43,0,0,1,.28.33.87.87,0,0,0,.47.36c.4.17.45.2.45.36s0,.14.35.1l1-.05a1.62,1.62,0,0,0,1.34-.53c.24-.18.49-.37.57-.41a4,4,0,0,0,.45-.27,9.84,9.84,0,0,1,2.34-.89,2,2,0,0,1,1,.06c0,.07.4,0,.5-.09s.1-.06.12-.05.06,0,.12-.08a.26.26,0,0,1,.14-.1.6.6,0,0,0,.22-.14.71.71,0,0,1,.31-.13.33.33,0,0,0,.31-.27c0-.13.12-.21.29-.21a.24.24,0,0,0,.25-.15.38.38,0,0,0,.06-.26A.76.76,0,0,1,336,324c.08,0,.1-.09.07-.21a.29.29,0,0,1,0-.18,8.15,8.15,0,0,0,.5-1.52,4.41,4.41,0,0,1,.27-.77,4.44,4.44,0,0,0,.19-.49,2.07,2.07,0,0,1,.21-.49,4.81,4.81,0,0,0,.73-1.93,5.87,5.87,0,0,1,.23-1.08c.35-1.17.4-1.36.63-2.39.12-.54.26-1.09.29-1.22a3.79,3.79,0,0,0,.11-.78,5.25,5.25,0,0,1,.08-.71,6.33,6.33,0,0,1,.41-1.22c.09-.19.28-.64.41-1s.34-.91.45-1.2a7.34,7.34,0,0,0,.24-.71,2.29,2.29,0,0,1,.17-.44,3.56,3.56,0,0,0,.21-.67,12.93,12.93,0,0,1,.45-1.61c.16-.51.35-1.21.42-1.58a15.17,15.17,0,0,1,1.25-3.69,2.49,2.49,0,0,0,.4-1.22,5.28,5.28,0,0,1,.6-2.2,1.47,1.47,0,0,0,.19-.68,1.06,1.06,0,0,1,.1-.48c.17-.33.83-2.14,1-2.84a2.74,2.74,0,0,1,.23-.53,4.17,4.17,0,0,0,.26-.8c.13-.65.21-.95.56-2.23l.28-1-.1-.16a1.66,1.66,0,0,1-.12-.5,1,1,0,0,0-.08-.39.28.28,0,0,1-.06-.15.43.43,0,0,0-.08-.19c-.12-.16-.09-.36.13-.77a7.72,7.72,0,0,0,.31-.71c.06-.17.18-.48.27-.67.18-.38.16-.37.79-.52a.71.71,0,0,0,.26-.08s-.06-.12-.16-.24-.2-.26-.18-.36,0-.14.09-.13.13-.07.19-.19a3,3,0,0,1,.19-.32.47.47,0,0,0,.1-.27.75.75,0,0,1,.08-.27c.1-.18.1-.21-.05-.26s-.21-.36-.08-.74l.1-.29-.12-.12a.53.53,0,0,0-.29-.14c-.23,0-.33-.12-.33-.28a.22.22,0,0,0,0-.16c-.09-.05-.06-.36,0-.53a.38.38,0,0,0,0-.47.4.4,0,0,1-.08-.23,1.17,1.17,0,0,0-.11-.36.64.64,0,0,1-.07-.44c0-.15,0-.22-.06-.27-.24-.2.11-.73.47-.7a.35.35,0,0,0,.22-.05.54.54,0,0,1,.48,0,1.2,1.2,0,0,1,0,.34c0,.26,0,.31.16.41s.16.13.13.37a.36.36,0,0,0,.14.41.46.46,0,0,1,.17.36c0,.26.19.49.37.49a.23.23,0,0,1,.24.25c0,.15,0,.15.26,0a.43.43,0,0,0,.2-.28.27.27,0,0,1,.16-.21c.1,0,.12-.07.1-.16s0-.11.07-.13.11-.07.11-.23a4.38,4.38,0,0,1,.42-1.25,4,4,0,0,0,.32-1.13.34.34,0,0,0-.07-.22.21.21,0,0,1-.08-.14.36.36,0,0,0-.11-.18.35.35,0,0,1-.11-.19.78.78,0,0,0-.18-.3,2.07,2.07,0,0,1-.33-.5,1.2,1.2,0,0,0-.18-.31.3.3,0,0,1-.05-.2.7.7,0,0,0-.08-.3.79.79,0,0,1-.08-.3,2.57,2.57,0,0,0-.1-.48,3.4,3.4,0,0,1-.08-1.41c0-.28,0-.32-.08-.44s-.12-.15-.07-.54,0-.43,0-.52a1.42,1.42,0,0,1-.07-.61,2.6,2.6,0,0,0-.19-1.11c0-.1-.15-.42-.24-.71a1.72,1.72,0,0,1-.12-.78.74.74,0,0,0-.3-.71c-.15-.15-.16-.18-.16-.56a1.62,1.62,0,0,0,0-.45.59.59,0,0,1-.09-.23c0-.11-.09-.2-.14-.2l-.12,0s0,0,0-.07,0-.15-.1-.15-.16-.1-.16-.29,0-.14-.06-.16a.09.09,0,0,1,0-.11c0-.05,0-.07-.08-.07a.18.18,0,0,1-.13-.06c-.06-.1-.17-.05-.21.1l0,.14-.05-.13a.63.63,0,0,1,0-.31c0-.16,0-.17-.12-.17s-.26-.08-.16-.19,0-.09,0-.17-.11-.2,0-.23a2,2,0,0,0-.31-.88.31.31,0,0,0-.24,0c-.13,0-.16,0-.23-.17s-.22-.39-.32-.39-.07.05,0,.16-.08.22-.17,0a.33.33,0,0,0-.19-.16c-.13,0-.14-.06-.11-.18s.06-.19.15-.12a.22.22,0,0,0,.18,0,.27.27,0,0,1,.2,0c.13.11.13,0,0-.46s-.32-.7-.44-.7A2.29,2.29,0,0,0,345.41,260.63Z" style="transform-origin: 0px 0px; stroke-dashoffset: 0; stroke-dasharray: none;" data-svg-origin="317.54791259765625 260.2500305175781">
</path>
<path d="M166.76,44.28a19.79,19.79,0,0,0-2.25.94,4,4,0,0,1-2.29.59,3.19,3.19,0,0,0-1.57.11,2.77,2.77,0,0,1-2.28-.27c-1.69-.65-1.93-.67-1.93-.13s-1.61.53-2.34,0-1.06-.52-1.58,0a3.88,3.88,0,0,1-1.66.64,4.52,4.52,0,0,0-1.57.54c-.36.35-1.55.41-1.55.06a4,4,0,0,0-1.88-.57c-1.71-.32-2.47-.3-6.19.19-.76.08-1.17,0-1.17-.16,0-.49-.49-.35-1.2.37s-.89.68-2.82.68c-3.81,0-7.23,1-9,2.58-1.08,1-1.52,1.14-1.68.6-.08-.25-.33-.22-.84.13a3.05,3.05,0,0,1-1.39.46,4,4,0,0,0-1.9,1.05,6.59,6.59,0,0,1-4.59,1.73c-1.36.1-1.69,0-2.31-.49s-.79-.56-1.53-.27a17.22,17.22,0,0,1-4,.3c-3,0-3.18-.06-4.13-.78-.71-.52-1-1-1-1.46,0-.65,0-.67-1.25-.48a11.62,11.62,0,0,0-1.57.29,9.8,9.8,0,0,0-1.36,2.56,21.49,21.49,0,0,1-2.23,4c-1.14,1.48-1.33,1.65-4.54,3-2.85,1.19-3.64,1.67-5.16,3.08s-1.82,1.8-1.82,2.48a4.12,4.12,0,0,1-1,2.15A4.67,4.67,0,0,0,82,71.39c-.14,1.43-.11,2,.19,2.32a1.4,1.4,0,0,1,.38.81c0,.48-3.37,3.74-5.52,5.39-.87.64-2,1.51-2.5,1.88-.71.54-1.44.76-3.4,1-2.39.3-4.26,1-4.16,1.56a.7.7,0,0,1-.19.52,10.27,10.27,0,0,0-.67,1.94c-.55,1.88-.68,2-2.83,3.18-1.36.72-1.6,1-2.45,2.69a14.62,14.62,0,0,0-1.11,3.48c-.19,1.7,0,1.48-3.23,4.15a9.07,9.07,0,0,0-1.69,1.75l-.33.59.66-.54.62-.53-.62.94A29.7,29.7,0,0,0,53,106.91a2.7,2.7,0,0,1-1,1.3,2.09,2.09,0,0,0-1,1,16.4,16.4,0,0,0-.9,5.66c.17.4.28.35.82-.33l.62-.78.6,1.13c.57,1.11,1.12,1.49,1.12.78,0-.16.24.11.54.62.65,1.19.73,3,.14,2.81-.25-.11-.49,0-.6.32s-.06.51.13.59.22.27,0,.76-.21.75.3,1.27c.74.8,1,1.67,1.23,4.25.19,1.94.16,2.19-.79,4.59A15.54,15.54,0,0,0,53,135.1a6.77,6.77,0,0,1-2.69,5.1c-1.33,1.16-1.46,1.4-.78,1.4a4.15,4.15,0,0,1,2.28,2.4c0,.35.16.56.46.56s.38.08.14.33c-.47.46-.41.83.05.67.27-.11.35,0,.27.22s.19.59.76.94.76.54.38.54a1.74,1.74,0,0,1-1-.43c-.44-.38-.49-.38-.76.11-.17.29-.22.59-.11.7a8,8,0,0,1,.11,2c-.06,1.7,0,2,.57,2.43a3,3,0,0,0,.89.54c.17,0,.3.27.33.57a1.69,1.69,0,0,0,.35.88,4.11,4.11,0,0,0,2.83,0c.41-.16.46-.13.3.11-.25.43.3.81,1.22.86.57,0,.6.06.14.16a3.26,3.26,0,0,0-.9.41c-.38.32-.43.86-.05.62.16-.08.27,0,.27.27,0,.48.62,1.21,1.06,1.21.13,0,.35.24.43.54.22.67.66.7,1.12.05.32-.4.35-.37.38.3,0,.51.11.7.32.57s.22-.08.11.1,0,.62.27,1a11.19,11.19,0,0,0,3.62,2.7c.43.13.57.35.49.67a1.28,1.28,0,0,0,.49,1.08,3.1,3.1,0,0,1,.79,1.24c.1.35.29.64.46.64s.13.22-.06.6-.21.64.19,1,.47.37-.24.21l-.79-.19.49.81a3,3,0,0,0,1.11,1.08c.36.16.63.46.57.68s.22.64.58.94c.62.54.62.56.08.56-.93,0-1,.49,0,.68,1.55.35,5.62,2.42,6.14,3.15a4.81,4.81,0,0,0,1.44,1c.57.29,1.06.67,1.06.83s.57.51,1.25.78a17.49,17.49,0,0,1,3.48,2.67,15.27,15.27,0,0,0,4.94,3.4l3.45,1.64c.68.38.9.35,3.13-.46A18.82,18.82,0,0,0,97.08,185c.74-.59,3-1.1,6.23-1.48,3.53-.4,8.29-.43,8.29,0,0,.13.51.21,1.16.21a9,9,0,0,1,2.23.44c1.93.72,2.07.72,2.86.16a8.91,8.91,0,0,1,2.39-1,24.21,24.21,0,0,0,3.91-1.48,19,19,0,0,1,3.29-1.27c.54-.08,1-.24,1-.38a1.91,1.91,0,0,0-1.14-1.05c-.16,0-.24-.08-.16-.16.27-.27,1.25.4,1.44,1s1.09.51,2-.43,3.56-1.48,7-1.48c2,0,2.91-.11,3.37-.41s.71-.35.82-.27,0,.17-.17.17-.32.08-.32.18.7.22,1.57.25a5.09,5.09,0,0,1,4.54,2.37c.3.54.71,1,.9,1a.19.19,0,0,1,.19.3c-.11.16.05.35.38.43.49.13.52.21.24.56s-.27.43,0,.51a.8.8,0,0,1,.33.65A4.31,4.31,0,0,0,152,187c.32.1.65.08.73-.08s.41-.19.71-.11a4.92,4.92,0,0,0,1.52,0c.79-.16.89-.27.65-.59-.41-.46,0-.51.49-.06.24.25.41.25.65,0,.46-.45,1.06-.4.87.09-.11.21,0,.4.14.4a.55.55,0,0,0,.46-.35c.08-.27.73-.41,2-.43,1,0,1.87-.16,1.9-.33.16-.4.6-.27.6.17,0,.27.27.4.76.4s.84.22,1.14.86c.51,1.11,2,2,2.55,1.59.27-.21.44-.24.57,0s0,.27-.11.27c-.51,0-.32.7.55,1.88l.84,1.13-.41,2a12.27,12.27,0,0,0-.27,2.67,3,3,0,0,1-.62,2c-1.15,1.86-1.25,2.23-.79,2.4a.92.92,0,0,1,.41.8c0,.46-.19.68-.68.81l-.71.16.6,1c.3.54.41.81.22.62-.6-.56-.71-.38-.68,1.16,0,1.35-.09,1.59-.82,2.26s-1,.71-1.22.54a1.52,1.52,0,0,0-.6-.24c-.25,0,.49,1.75,1.11,2.7a2.39,2.39,0,0,1,.57,1.34c0,.14.3.27.63.27s.52.08.27.33c-.51.51-.41.72.57,1.16.49.21.6.32.25.24l-.63-.16.74,1.13c.59.89.89,1.1,1.38,1,.33-.06.54,0,.49.1s.08.27.33.33.16.08-.28,0c-1.06,0-.81.35,1,1.7a22.49,22.49,0,0,1,3,3,30.27,30.27,0,0,0,2.47,2.75,7.83,7.83,0,0,1,1.47,1.89c.27.51.73,1.4,1.06,2a3.75,3.75,0,0,1,.54,1.75,17.92,17.92,0,0,0,1.5,4,38.17,38.17,0,0,1,1.79,4.32,16,16,0,0,0,1.12,2.61c1.06,2.08,1.06,2.94,0,3.59-.44.24-.82.64-.82.83a44.12,44.12,0,0,0,2.94,7.17c.65,1,.65,1.16.4,3.67-.3,3-.81,4-2.55,4.85-.63.32-1.06.75-1.06,1a3.23,3.23,0,0,1-1,1.4,2.44,2.44,0,0,0-.95,1.7,3.16,3.16,0,0,1-.33,1.35,8.13,8.13,0,0,0-.52,1.94c-.29,2.21-1.27,5.12-2,5.87s-.62.79-.38,2.22a5.94,5.94,0,0,1,.11,1.85c-.06.17-.14.09-.14-.18s-.16-.46-.32-.46-.22.19-.08.46a17,17,0,0,1,.27,3,8,8,0,0,0,.73,4,9.4,9.4,0,0,0,1.58,2.3,9.28,9.28,0,0,1,1.46,2c.36.67,1.06,1.91,1.61,2.8a17.7,17.7,0,0,1,1.41,2.94,17.39,17.39,0,0,0,1.63,3.1,9.68,9.68,0,0,1,1.2,2,2.31,2.31,0,0,0,.7,1,7.72,7.72,0,0,1,1.2,1.46c.57.91,1,3,.62,2.75-.16-.11-.21,1-.13,2.85.11,2.46.24,3.26.76,4.26a12.69,12.69,0,0,1,.9,3.64c.35,3.15.57,4.18,1,4.85.22.3.3.62.22.73-.25.24.81,2.83,1.85,4.58a15.57,15.57,0,0,0,3.94,4c.6.24,1.79,2.29,2.69,4.55a26.57,26.57,0,0,0,3.42,6.66,29.38,29.38,0,0,1,1.74,2.88c.79,1.86.3,3.64-1,3.64-.74,0-.66.81.16,1.59a2.34,2.34,0,0,1,.68.89,3,3,0,0,0,.57,1.05,1.48,1.48,0,0,1,.24,1.75,2.53,2.53,0,0,0-.16,1.33c.22.59.9.48,1.06-.14s.95-.67,1.06.05c0,.49.3.65,1,.71.49.05,1,.26,1.06.48.33.86,3.59,1.62,4,.92s2.66-1.32,4.78-1.32,2.31-.08,3.29-.73,1.33-.76,3.86-.84c4.73-.11,5.35-.08,6.9.33,1.34.32,1.58.32,2,0a3.32,3.32,0,0,1,2-.41c1.36,0,1.53-.05,1.61-.62s.22-.59,2.12-.62a6.64,6.64,0,0,0,3.94-1,36.22,36.22,0,0,0,8.15-5.93,47.21,47.21,0,0,1,3.62-3.1,29.07,29.07,0,0,0,5.73-7.22,10.66,10.66,0,0,1,3.89-4c1.76-1.19,2.17-1.83,2.66-4.13a21.89,21.89,0,0,1,.87-3,4.61,4.61,0,0,0,.41-1.78,8.6,8.6,0,0,1,0-2.24c.16-1.59.14-1.83-.33-2.13s-.51-.37-.08-1.21c.63-1.18,1.5-1.67,5.47-3,2.44-.84,3.66-1.4,4.48-2.13,1.47-1.24,2.55-3.58,1.47-3.18-.36.13-.41,0-.25-1a8.62,8.62,0,0,1,.57-1.94c.25-.51.3-.86.14-1s-.25-.84-.22-1.67c.06-1.57-.35-2.16-.65-1-.08.35-.16-.06-.14-.86a5.45,5.45,0,0,0-.57-2.57,3.41,3.41,0,0,1-.43-1.94c.11-.72,0-1-.71-1.67s-.87-.94-.81-2.15.16-1.38.59-1.38a7.66,7.66,0,0,0,2.48-2,11.41,11.41,0,0,1,2.8-2.21,8.55,8.55,0,0,0,2.71-2.43,21.52,21.52,0,0,1,2.94-2.88,23.83,23.83,0,0,1,6.11-2.54,4.4,4.4,0,0,0,1.63-.78,9.88,9.88,0,0,1,1.85-1.19,3.12,3.12,0,0,0,1.33-1.05,19.6,19.6,0,0,1,2.77-3.66c1.06-1,1.83-4.61,1-4.91a.52.52,0,0,1-.24-.67c.08-.27,0-.51-.11-.51a8.34,8.34,0,0,1-.27-2.64c-.06-1.94-.17-2.59-.41-2.54s-.11-.16.16-.46.44-.64.22-.89a11.46,11.46,0,0,1-.46-2.91,8.62,8.62,0,0,1,.24-3.77c.22-.67.3-1.24.16-1.29s-.16-.27-.08-.49c.19-.51-.79-1.53-2.28-2.42a7.41,7.41,0,0,1-1.17-.73,13.16,13.16,0,0,0-.87-3.61,1.64,1.64,0,0,1-.35-.73,4.69,4.69,0,0,0-.41-1c-.3-.62-.3-1,0-2.18s.3-1.53-.14-2.15-.43-.76.11-1.62a3.63,3.63,0,0,0,.57-1.27,6.63,6.63,0,0,0-1.46-1.8,7.44,7.44,0,0,1-1.63-2.11,5.8,5.8,0,0,1,.62-2.61,24.1,24.1,0,0,0,1-2.7,1.43,1.43,0,0,1,.73-.91c.36-.11,1-1.13,1.91-3a18.46,18.46,0,0,1,1.6-2.93,1.76,1.76,0,0,0,.24-1,2.07,2.07,0,0,1,1.58-2.18c.9-.22,2.72-1.81,2.55-2.27-.05-.18.14-.32.41-.32.68,0,1.36-.75,2.69-3,1.17-1.94,6.23-7.39,9.84-10.57a25.28,25.28,0,0,1,5.08-3.5c2.42-1.24,3.1-1.78,6.25-4.91,4.21-4.2,5.82-5.95,6.47-7.19a35.26,35.26,0,0,1,2.23-3.43,16.94,16.94,0,0,0,1.9-3.15c.08-.38.19-.94.27-1.29a11.72,11.72,0,0,1,1.23-2.3,21.58,21.58,0,0,0,1.6-2.83,5.57,5.57,0,0,1,.95-1.53,9.58,9.58,0,0,0,1.44-2.27,13.29,13.29,0,0,1,1.47-2.45,6.18,6.18,0,0,0,.81-2.56,8.28,8.28,0,0,1,.74-2.51c.51-.59.89-3.47.51-3.74-.19-.11-.11-.62.19-1.43s.41-1.35.25-1.51a4.1,4.1,0,0,0-1.55-.4c-1.2-.17-1.33-.14-2.07.64a3.37,3.37,0,0,1-1.55,1c-.4.08-1.44.35-2.25.59a13.43,13.43,0,0,1-3.26.46,6.7,6.7,0,0,0-2.42.41,4,4,0,0,1-2.31.18c-1.55-.16-1.69-.1-3.48.95L329,158.66l-1.64-.46-1.6-.43-1.44.78a12.7,12.7,0,0,1-2.66,1.11,3,3,0,0,1-2.48-.22,6.49,6.49,0,0,1-2.14-1.67l-1.52-1.83c-.52-.65-.76-.73-2.2-.73-1.77,0-1.74-.11.43-1.08,1.63-.75,1.85-1.1,1.44-2.34-.33-.95-1.49-2.4-1.85-2.35-.57.11-.89-.05-.89-.46,0-.24-.36-.56-.82-.72a1.39,1.39,0,0,1-.95-1A3.87,3.87,0,0,0,308.4,145a5,5,0,0,1-1.52-1.49,4.39,4.39,0,0,0-3.18-2.29c-1.22-.19-2.69-.86-2.69-1.21a2.48,2.48,0,0,0-.51-.81,4.59,4.59,0,0,1-.66-.92c-.19-.59-.79.17-.62.87s.08.59-.25-.17a3.36,3.36,0,0,0-.73-1.07c-.49-.3-1-1.78-1.44-4-.38-2-.54-2.48-2-5.47-.54-1.16-1.08-1.94-1.33-1.94a5.2,5.2,0,0,1-1.68-1.19A7.94,7.94,0,0,0,290,124a1.73,1.73,0,0,1-.87-1,34,34,0,0,1-.76-7.34,1.66,1.66,0,0,0-.24-1.21c-.52-.51-.49-1,0-.59.82.67.71,0-.13-.92a4.09,4.09,0,0,1-1-2.1c-.16-.94-.46-1.4-1.68-2.53a16.17,16.17,0,0,0-2.36-1.84,5.51,5.51,0,0,1-2.26-4.09c0-.92.05-1,.68-.81.38.11.68.11.68,0a10,10,0,0,0-1.25-1.27,10.81,10.81,0,0,1-2.12-2.91c-.49-1-1.63-3-2.53-4.45a28,28,0,0,1-2.25-4.42,12.27,12.27,0,0,0-1.28-2.64c-.6-.78-.65-1-.33-1.19s.11-.48-.92-1.45a18.88,18.88,0,0,1-2-2.29,5.62,5.62,0,0,0-.92-1.19.47.47,0,0,1-.14-.56,2,2,0,0,0-.41-1.3c-.62-1-.73-1.94-.29-2.21.16-.08.27.06.27.33a6.76,6.76,0,0,0,1.22,2.1,5.51,5.51,0,0,1,1.22,2.32c0,.53.46,1.15,1.88,2.45a10,10,0,0,0,2.42,1.88c.78.22,1.55-.7,1.57-1.91,0-.92.3-1.86,1.52-5.09.39-1,.47-1.51.28-1.75a27.31,27.31,0,0,1-1.5-3.35l-1.22-3,.65-.59a2.21,2.21,0,0,0,.65-.83c0-.41-.73-.22-1.25.35-1,1.1-1.95,1.4-3.94,1.21-1.17-.14-1.87-.08-2,.08-.24.43-1.66.35-2-.11a2.23,2.23,0,0,0-.89-.56,3.33,3.33,0,0,1-1-.49c-.38-.3-1.69-.43-4.38-.43-2.91,0-3.26,0-3.26.59,0,.38-.16.51-.62.43a2.84,2.84,0,0,0-1.42.49,7.44,7.44,0,0,1-3.07,1.45,6,6,0,0,1-1.71-.53,6.48,6.48,0,0,0-2.2-.54,2,2,0,0,1-1.17-.27c-.08-.16-.54-.27-1-.27a3,3,0,0,1-1.41-.41,10.06,10.06,0,0,0-2.61-.67c-1.09-.16-2.5-.4-3.15-.57a3.92,3.92,0,0,0-2.2,0c-1.5.41-1.69.38-1.91-.32-.38-1.27-.89-1.54-2.88-1.54a7.18,7.18,0,0,1-2.47-.32,10.77,10.77,0,0,0-2-.59c-1.19-.27-1.35-.41-1.44-1s-.29-.79-2.36-1.43c-2.55-.78-3.75-.78-6.69.08-2.39.7-4.05,1.64-4.78,2.75a3.09,3.09,0,0,0-.08,3.53c.62,1.24.46,1.91-.71,3a4.38,4.38,0,0,1-3.48,1.48,9,9,0,0,1-2.36-1.24,21.85,21.85,0,0,0-8.89-2.94,9.44,9.44,0,0,1-3.18-.72,3.6,3.6,0,0,1-1.49-2.48c0-1-1-1.86-2.36-2.08a9.21,9.21,0,0,1-2.26-.67,10,10,0,0,0-2.31-.68,7.06,7.06,0,0,1-1.85-.45,4.38,4.38,0,0,0-2.34.08c-1.79.29-1.93.29-3.37-.41-1.73-.81-2.5-.89-2.85-.24s-1.14.24-1.14-.59-.84-1.3-1-.73-.9.4-.82,0c.06-.19-.22-.38-.6-.43-1.49-.19-2.6-1.19-2.31-2a2.76,2.76,0,0,1,1.09-.81,7.47,7.47,0,0,0,1.63-1c1-.84,2.37-2.86,2.07-3a2.07,2.07,0,0,1-.38-.94c-.14-.6-.47-1-1.28-1.38s-1.09-.67-1.09-1.35c0-.45.11-.81.25-.81.62,0,1.93-1.45,2.09-2.31.08-.51.11-1,0-1.11s-.63.14-1.17.51c-1.44.92-2,1.11-2,.6a.7.7,0,0,0-.44-.57c-.3-.11-.32-.21-.11-.35.57-.35,0-.86-.84-.75-.43.08-.73,0-.71-.17.09-.35-.84-.45-1.71-.18M56.1,147.52a.72.72,0,0,1-1,0c-.27-.35,0-.59.46-.59s.74.24.49.59m3.78,6.53a.65.65,0,0,1-.68.58.44.44,0,0,1-.46-.58.78.78,0,0,1,.68-.59c.26,0,.46.23.46.59" style="transform-origin: 0px 0px" data-svg-origin="49.12704086303711 44.279998779296875">
</path>
</g>
</svg>