<svg id="Path" xmlns="http://www.w3.org/2000/svg" viewBox="0 0 400 400"><g><path d="M130.39,88.87c2.2,0,3.9-1.49,6-1.32.69,0,1.36-.34,2.12.12,1,.62,1.79.15,1.84-1,.07-1.39.85-2.51,2-2.44s2.93.1,3.55,1.89,3.4,1.87,3.54,4.3a2.93,2.93,0,0,0,0-3.84,6,6,0,0,1,1.63-7.79,4.61,4.61,0,0,0,1.88-3,3,3,0,0,1,4.59-1.24,1.26,1.26,0,0,1,.18,1.68c-1.65,3.34-1.11,7.13-2.22,10.57a1.83,1.83,0,0,0,0,1.38c1.66,2.07.67,4-.25,5.89-1.09,2.22-3.2,2.57-5.38,2.7a2.7,2.7,0,0,0-.58.17,3.8,3.8,0,0,0,5.53.36c1.85-1.51,4-2.91,3.16-6-.39-1.42.51-2.31,2.07-2.38,1.34-.06,2.73-.27,2.66,1.78,0,.17.14.35.23.54,1.1-1.2.92-2.29-.56-2.89a11.25,11.25,0,0,0-2.6-.56c-2.33-.34-3-1.31-2.08-3.47a4.91,4.91,0,0,0,.2-4.28c-.54-1.25.44-2.24,1.36-3s1,.2,1.19.79c.25.77-.13,1.85,1.2,2.24.26-1-.89-2.32.94-3a3.16,3.16,0,0,1,3.55.32,9,9,0,0,0,2.78,1.83c.15-1.12-.59-1.41-1.21-1.74-.83-.45-1.47-1.28-1-2,.67-1-1.7-3.34,1.37-3.18,1.43.07,2.75-1.6,4.56-.11-1.65-2.78-.18-4.76,1.23-6.76A3.34,3.34,0,0,1,175.77,64,3,3,0,0,0,178,62.65a1.53,1.53,0,0,1,1.81-.61c3.13.73,4.45-.26,4.51-3.41.06-2.56,1.65-3.56,4-2.49.53.24,1,.55.95,1.19s-.45,1.28.21,1.88,0,1.31.52,2.15c1.05-1.88,2.54-2.85,4.4-1.9,2.06,1.06,3.65,2.68,3.51,5.28a1.57,1.57,0,0,0,.82,1.49,14,14,0,0,1,2,1.73c.94,1,1.66,1.37,3.06.44a3.47,3.47,0,0,1,4.65.74c.45.48,4.16.53,4.56.07.59-.68-.1-.78-.51-.95-.66-.28-1.38-.6-1-1.46a1.65,1.65,0,0,1,2.12-1.14,6.57,6.57,0,0,0,3-.09c2.66-.36,4,1.76,5.32,3.49a8.57,8.57,0,0,0,5.84,3.3,1.24,1.24,0,0,0,1-.23c.35-.44-.11-.71-.41-1s-.79-.8-.43-1.41a1.1,1.1,0,0,1,1.26-.49c2.09.46,3.47-1.66,5.51-1-.07-1.19-.63-.88-1-1-.89-.26-1.5-.77-1.36-1.75a1.71,1.71,0,0,1,1.72-1.65c2.23-.28,4.47-1.74,6.58.35.34.33.41-.14.43-.37.13-1.55,1.38-1.73,2.49-2s2.35-.3,2.59,1.4c.06.46.59.26.85.11.92-.55,1.75-.81,2.44.32.09.15.45.31.5.26,2-1.81,5-.27,7.08-2.5s5.76-1.73,8.2.26c1.2,1,2.78,1,4.54.79-1.1-1.9-.28-2.38,1.51-3,3.16-1.1,6.19-2.58,9.92-2.83-1.2-1.07-3.1,0-3.25-1.5s1.7-.9,2.49-1.51c3.94-3.07,8.77-3,13.35-3.8a73.32,73.32,0,0,0,8.07-1.45c3-.87,6-.51,9.1-.49-.3-.11-.6-.25-.91-.33-1.73-.46-1.28-1.25-.3-2.08a5.24,5.24,0,0,1,3.59-1.29,8.78,8.78,0,0,0,4.57-.91c1-.57,1.62-.17,2.13.78.69,1.3,1.26,2.75,3.25,2.58.74-.07.84.65.26,1.12a3.81,3.81,0,0,1-2.27.86,5.57,5.57,0,0,0-3.28,1,1.35,1.35,0,0,1-1.36.22,2.3,2.3,0,0,0-3.24,1.23c-.42.81-1.14.85-1.95.71a3.32,3.32,0,0,0-2.58.08c1,.68,2.31.31,3,1.25,1,1.33-.1,1.92-1.05,2.7,2.46-.85,4.8.79,7.22,0a4.19,4.19,0,0,1,2,.19c.79.17,1.77.28,1.87,1.29s-.88,1-1.54,1.35a1.92,1.92,0,0,0-1.19,2.81c.58,1.38,1.2,2.76,1.72,4.17,1.06,2.86.4,4.15-2.55,4.68-1.26.23-2.05.63-2,2a1.5,1.5,0,0,1-.58,1.25c-1.45,1.18-1.31,2.7-.6,4.09s1.8,2.64,3.73,2.2a1.07,1.07,0,0,1,.61,0c1.86,1.17,3.68,2.39,6.08,2.15a.71.71,0,0,1,.53,1.2c-1.72,1.73.27,2,1,2.23,1.85.52,1.9,1.35,1.85,3.21-.06,2.21-.16,4.86,1.8,6.72a3,3,0,0,1,.76,1c.51,1.22,1.81,2.74.77,3.74s-2.44-.37-3.58-1c-3.37-2-7.11-3.15-10.69-4.66-1.63-.7-3.32-1.27-4.95-2s-2.62-1.48-2.8-3.56c-.13-1.51-.67-2.8.13-4.35.52-1-.19-2.27-.54-3.37-.43-1.37-1-2.69-1.51-4a3.42,3.42,0,0,0-1.82-1.86c-.54-.26-1.21-.65-1.75-.32s-.13,1.09,0,1.66c.4,1.56-.23,2.28-1.77,1.93a6.08,6.08,0,0,1-2.67-1,1.17,1.17,0,0,0-1.49-.22,1.21,1.21,0,0,0-.47,1.46c.54,1.76,1.1,3.52,1.73,5.25a1.44,1.44,0,0,0,1.6,1c.4,0,.87-.17,1,.37a1,1,0,0,1-.45,1.08,51.72,51.72,0,0,1-5.6,3.77,1.19,1.19,0,0,1-1.49-.22c-1.3-1.15-2.44-.19-3.6.28-.22.08-.51.39-.5.58.16,3.5-2.92,3.57-5,4.48a24.35,24.35,0,0,0-4.41,2.55c-.7.5-.51,1.19-.29,1.86a8.29,8.29,0,0,1-.24,5.62c-1,2.67-.73,5.54-1.3,8.29a1.07,1.07,0,0,0,1.5,1.31c2.25-1,3.49.07,4.56,2.27.52-1.82,1.31-2.1,2.24-.6a2,2,0,0,0,.72-1.78c-.56-2.46,1.23-2.28,2.56-2.15a28.06,28.06,0,0,0,4.48.41c1.41-.09,1.58,1.63,2.94,1.86-.4-1.43-.09-2.92-1.16-4.07-.23-.25-.46-.56-.11-.88a.82.82,0,0,1,1-.11,5.71,5.71,0,0,1,1.89,1.17c3.26,4.1,8,5.77,12.5,7.93a18,18,0,0,1,2,1.1c.56.36.8.79,0,1.19-1.62.8-1.25,2.15-.76,3.36a6.81,6.81,0,0,0,3.61,3.47c1.38.67,2,2.82,1,3.88-.67.69-1.22.13-1.63-.5-2.63-4.06-6.37-7.1-9.67-10.54a9,9,0,0,0-5.5-3c-.36,0-.78-.51-1.08,0a1.07,1.07,0,0,0,.21,1.16,22.81,22.81,0,0,0,1.9,2.15c2.75,2.62,4.67,5.55,4.84,9.56.08,2,1.27,3.89,1.32,6,.09,4.24.05,8.5-1.46,12.51-.84,2.22-1.91,4.48-5.15,3.9a2,2,0,0,0-2.3,1.91c.24,2.3-1.54,4.61.15,6.88a1.7,1.7,0,0,1-.31,2.26c-1,1-1.23,2.43-1.84,3.64s.05,2.14,1.32,2.45a21.16,21.16,0,0,1,5.14,2.52c2.77,1.52,3.56,4.55,5.2,6.94a1.21,1.21,0,0,1-.15,1.7c-2,1.19-3.26,3.12-5.12,4.41-1.34.92-2.08.68-2.39-1-.36-1.89-.23-4-2.43-5.1-.55-.27-.23-.94-.07-1.49.47-1.58-.16-2.23-1.84-2a4.16,4.16,0,0,0-1.74.54c-.95.59-1.69.06-2.42-.49s-.43-1.3-.1-2c.7-1.49,0-1.86-1.42-2.07-3.9-.59-6.31,1.22-7.91,4.55-.34.7-.78,1.41-1.67,1.24s-.83-1.12-.87-1.84a11.24,11.24,0,0,1,.17-3.47c.22-.84.08-1.55-.91-1.7-.8-.11-1.74-.24-2,.86-.66,2.7-3.25,4.4-3.7,7.23-.11.7-.94.92-1.61,1.12s-1.17.23-1.13,1a1.45,1.45,0,0,0,1.19,1.49c1.95.19,3.71.53,5,2.24.58.75,1.33,0,1.82-.61a7.16,7.16,0,0,1,7.56-2.65,1.67,1.67,0,0,1,1.19,1.52c.08.84-.52.77-1.11.73-.25,0-.64.05-.74.22-1.38,2.39-3.54,4.36-4,7.23a2.05,2.05,0,0,0,1.59,2.51,8.58,8.58,0,0,1,4.41,3.16,9,9,0,0,0,3.31,2.38c1.92.92,1.91,1.1.18,2.27.16.57.67.36,1,.44,2.63.57,2.79,1,1.14,3-.43.52-1.06,1.09-.77,1.79.4.95,1,0,1.56,0a2.41,2.41,0,0,1,2.62,2.11c.18,1.57.55,3.29-1,4.59a2.45,2.45,0,0,0-.56,1.92,9.71,9.71,0,0,1-.87,4,7.81,7.81,0,0,0-.79,4.36,4.79,4.79,0,0,1-1,3.27c-1.63,2.39-2.62,5.19-4.79,7.21-.2.19-.5.39-.52.61-.3,3-2.73,3.48-4.91,4.53-5.05,2.41-9.34,6-13.93,9.2a1.34,1.34,0,0,0-.25,2.14,7.23,7.23,0,0,0,1.85,2.16c.83.5.94,1.07.29,1.84a1.62,1.62,0,0,0-.49,1.08c.34,2.12-1.14,3-2.5,4-1.05.82-1.9,1-2.94.24a2.49,2.49,0,0,1-1.09-3c.55-1.5,1.34-2.86,3.07-3.33.52-.14,1-.37,2.07-.78-2.15-.29-2.93-1.3-3.22-2.89a2,2,0,0,0-2.24-1.43c-1.32.07-2.89,0-3.69,1.33-1.42,2.35-3,4.6-4.29,7-1.17,2.23-.88,3.27.57,5.26,1.78,2.44,4.15,3.8,6.68,5.16,3.26,1.74,4.3,4.95,5.31,8.27a16.44,16.44,0,0,1,1,6.78c-.33,3-3,6.89-5.94,7.86-1.3.43-2.21,1-2.28,2.48a2.05,2.05,0,0,1-.95,1.53,15.27,15.27,0,0,0-3.62,3.6,1.44,1.44,0,0,1-1.77.68c-.66-.29-.34-.95-.35-1.47,0-.68,0-1.37-.05-2.05,0-.95-.48-1.31-1.47-1.58s-3.52,1-2.94-1.93c-3-1.45-4.44-5.9-8.9-4.8-1.07.26-1.67-.43-1.73-1.5-.05-.87-.32-1.49-1.32-1.43-1.22.07-.86.93-.8,1.66A17.71,17.71,0,0,1,236.8,294c-1,2.47-1.14,4.88,1.49,6.68.92.63,1.12,1.84,1.47,2.88a6.54,6.54,0,0,0,3.8,4.12c2.36,1.13,5.07,2.1,6.72,4.46a8.38,8.38,0,0,1,1.56,6.11c-.19,1.39-.13,2.56,1.11,3.46s1.36,2.17,1.74,3.41a1.47,1.47,0,0,1-.78,1.89c-.71.39-1.45.59-2.08-.07a10.07,10.07,0,0,0-4.29-2.35c-4.91-1.67-6.17-5.86-7-10.24-.24-1.31-.31-2.8-1.2-3.58-2.27-2-3.19-5.34-6.39-6.4-.79-.26-.84-1-.7-1.74.57-2.73.6-5.53,1.07-8.27a12,12,0,0,0-1.56-8.66,31.37,31.37,0,0,1-3.92-8.32c-.35-1.25-1.83-1.76-2-3.23-.05-.55-.8-.15-1.13.21a15.77,15.77,0,0,0-1.64,1.83,4.41,4.41,0,0,1-4.6,1.76c-2-.25-2.75-.86-2-2.74,1-2.56-.05-4.36-1.54-6.15a5.14,5.14,0,0,1-1.21-2.11,2.43,2.43,0,0,0-1.24-1.82c-3.67-1.43-4.84-4.72-6.08-8a2.53,2.53,0,0,0-1.62-1.73c-.79-.21-1.69-.54-1.67.91,0,.78-.22,1.43-1.24.87-.17-.09-.32-.22-.52,0a14.26,14.26,0,0,1-5.08,3c-.33,0-.88.11-1,0-1.3-2.13-2.17-.11-3.27.24-1.8.57-2,1.74-1.74,3.37a2.58,2.58,0,0,1-1.6,2.63,16.63,16.63,0,0,0-6.46,5.51,7,7,0,0,1-2.85,2.29c-1.91,1-3.76,2-4.17,4.45,0,.19-.15.48-.29.52-2.27.63-3.46,3-5.69,3.59-1.55.42-2.18,1.18-1.81,2.82s.64,3.5.89,5.25a6.29,6.29,0,0,1-1.42,4.8,2.8,2.8,0,0,0-.5,3c.63,1.6.73,3.13-1.37,3.8-.13,0-.32.12-.34.22-.63,2.88-3.64,3.86-4.93,6.24-1,1.92-2.69,2-4.06.19a15.51,15.51,0,0,1-2.85-5.42,29.12,29.12,0,0,0-3.46-7.64,9.28,9.28,0,0,1-1.68-4.57c-.06-3.29-1.8-5.94-3.32-8.65a15.34,15.34,0,0,1-2.14-6.15c-.36-4.32-1.94-8.57-.72-13a1.74,1.74,0,0,0-.51-1.89c-.67-.54-1.11.14-1.63.41-4.35,2.27-5.56,1.54-7.73-1.37-.08-.11-.18-.2-.26-.31-.64-1-2.36-1.58-2-2.87s2.15-.26,3.34-1.46c-3.63-.45-4.77-4-7.72-5.43-1.26-.61-2-2.53-2.74-3.94a2.35,2.35,0,0,0-2-1.46c-5.11-.36-10.17-1.25-15.31-1.19-2.18,0-4.08-1.06-6-1.72s-3.59-1.63-5.53-2.11a2.77,2.77,0,0,1-2.28-2.95c-.16-3.43-.9-3.93-4.22-3.15-4.56,1.07-6.31.37-8.87-3.59a4.27,4.27,0,0,0-1.66-1.78c-3.31-1.42-3.77-4.4-4.12-7.42-.14-1.19-2.29-4.39-3.34-4.29a5.12,5.12,0,0,0-3.6,1.62c-.75.91-1.11,1.9-.21,3a2.27,2.27,0,0,1,.4,1.94,3.22,3.22,0,0,0,.68,2.5c1.82,2.38,3.17,4.91,2.94,8.05a5.44,5.44,0,0,0,.33,1.6c.33,1.36.84,1.94,1.88.44.4-.58.94-1.14,1.71-.69s.51,1.19.27,1.84-.5,1.13-.76,1.68-.78,1.38-.12,2.08a1.9,1.9,0,0,0,2.23.62c1.12-.55,1.88-.13,2.81.47a2.49,2.49,0,0,0,3.44-.33,61.58,61.58,0,0,1,6.71-4.65c.63-.43,1-.22,1.1.55a2.46,2.46,0,0,1,0,.81c-1.17,4.58,1.83,6.86,5.09,8.75a11.12,11.12,0,0,1,3.94,4.3,2,2,0,0,1-.23,2.29,13.24,13.24,0,0,1-5.33,4.67,3.47,3.47,0,0,0-2.2,3.3c0,1.3-.4,2.15-1.89,2-.42,0-.95,0-1.12.37-1.35,3-4.87,2.4-7,4.2a1.16,1.16,0,0,1-1,.28c-2.22-1.12-4.38.58-6.61.09a2.18,2.18,0,0,0-2.54,1.64,2.07,2.07,0,0,1-2.09,1.61c-2.35.15-4.62,1.17-7.06.51a2.94,2.94,0,0,0-2,.44c-3.64,2.08-7.62,1.78-11.56,1.71a5.43,5.43,0,0,0-2.38.4,5.66,5.66,0,0,1-3.61.28c-3.34-.69-4.08-1.57-4.36-4.94-.26-3-.66-6,.2-9.11a6.35,6.35,0,0,0-1.57-5.74A6.14,6.14,0,0,1,34,251.34a9.14,9.14,0,0,0-3.17-7.46c-2.27-1.92-2.43-4.37-1.78-7.11.84-3.53.6-6.89-2.29-9.57a3.2,3.2,0,0,1-.9-2.64c.18-3.81-1.36-7.4-1.45-11.17a1.88,1.88,0,0,0-.47-1.32c-2.6-1.81-.91-3.52.18-5.07a5.38,5.38,0,0,0,1.2-3.6c-.28-3,1.38-5,3.25-6.94a32.53,32.53,0,0,1,5.55-5.14c2.31-1.48,2.35-4.15,3.58-6.19.37-.62,1.66-1.31,1-1.93A4.32,4.32,0,0,0,35,182a10.14,10.14,0,0,0-1.16.43c-3,.91-4.47.24-6.06-2.48-.84-1.44-1.61-3.16-3.92-1.52-1.07.75-2.37.09-3.18-1A24.45,24.45,0,0,0,19,175c-1.72-1.9-2.63-3.7-1.33-6.42a7.77,7.77,0,0,0,.45-5.7c-.26-.75.24-1,.74-1.22,1.71-.79,3.31-1.56,5,.21,1.3,1.35,3.19,1,4.64.32,1.79-.83,3.2-.3,4.62.54a3.79,3.79,0,0,0,2.71.48c4.87-.72,9.25.11,12.53,4.21,2.26,2.82,5.58,3.8,8.79,4.94a1.44,1.44,0,0,0,1,0c2.67-1.21,4.77.42,6.94,1.42a2.54,2.54,0,0,1,1.56,3c-.84,3.43,1.53,5.65,3.14,8.08.79,1.2,2.17.7,3.38.22,2.71-1.08,3-.85,2.84,2.05-.14,2.24,1.19,3.72,2.69,5.06A31,31,0,0,1,82.49,196a4.56,4.56,0,0,0,4.06,1.5,14.23,14.23,0,0,1,2.24-.16c1.1.11,1.57-.35,1.49-1.38a9.35,9.35,0,0,1,.85-3.77c.8-2.28.93-4.48-.46-6.6a2,2,0,0,1,.37-2.46c.82-.92,1,.35,1.54.61.85.42,1.79,1,2.69.41s-.17-1.46-.11-2.15c.25-3-2.71-3.62-4-5.52s-1.58-4-2-6.14a1.39,1.39,0,0,1,.17-.78,19.85,19.85,0,0,1,5.32-2.41c2.34.4,2.68.16,3.48-2.49.49-1.65-1-1.79-1.85-2.46-2.4-1.81-5.08-.16-7.56-.76-2,2.38-5.37,1.72-7.59,3.65a2.14,2.14,0,0,0-1,2.25c.66,3.11.06,6.28.47,9.41A1.83,1.83,0,0,1,78.84,179c-1.93.16-5.07-2.11-5.34-4.06-.21-1.61-.93-2.35-2.52-2.24s-2.53-.92-3.08-2.25a4.81,4.81,0,0,0-3.36-2.91c-2.18-.73-4.33-1.75-5.17-4.47-.54-1.76-2.18-3.08-3-4.84-.68-1.47-.35-2.17,1.22-2.42a22.29,22.29,0,0,1,2.19-.51c1.14-.05,1.46-.51,1.15-1.56-.23-.82.14-1.54.93-1.44a2.61,2.61,0,0,0,2.5-1.38,3.51,3.51,0,0,1,2.46-1.33,3.51,3.51,0,0,0,2.81-2.11c1-1.91,1.57-3.32-.63-5.22-2.48-2.14-3-5.62-3.12-8.84-.11-2.14-.58-2.86-2.71-2.72-1,.07-2,.19-2.5-.89-.54-1.24.54-1.61,1.31-2.17,2.23-1.61,2.14-7.1-.1-8.61-1.85-1.25-1.66-1.46-.33-3.2A48.53,48.53,0,0,0,66,108.55c.91-1.77,4.11-4.39,6.15-4.29.89,0,1.2-.38,1.58-1A5.58,5.58,0,0,1,78,100.73a20.81,20.81,0,0,0,3.61-.73c1.77-.55,3.67-1.08,3.12-3.68a1.43,1.43,0,0,1,.33-1.16c1.89-1.79,3-4.19,4.74-6,1.37-1.48,2.36-3.15,3.59-4.68,2.5-3.1,4.92-6.42,9.34-7,1.16-.14,2.94-1.22,2.72,1.43,0,.46.52.65.87.77,1.92.63,2.38,2.28,2.87,3.94a9.92,9.92,0,0,0,.89,2.71c1.21,1.87.44,3-1.12,4.08-3.06,2.06-5.42,1.74-7.77-1a3.08,3.08,0,0,0-.91-.82c-.65-.31-1.32-1.11-2-.7s-.31,1.35-.06,2a2.1,2.1,0,0,1-.94,2.49A4.14,4.14,0,0,0,96,95.7a1.37,1.37,0,0,0,1.61,1.63c1.15-.1.41-1,.49-1.62.09-.74-.81-1.77.75-2.1s1.76.33,1.87,1.58,1.36,1.16,2.24,1.23,1.15-.51,1.07-1.35.43-1.42,1.3-1.81A33.23,33.23,0,0,1,110.07,92a1.68,1.68,0,0,1,2.06,1c.75,1.43,1.25.76,1.79-.1.08-.11.22-.24.2-.35-.36-2.66,1.75-4.13,2.89-6.06.37-.64.59-1.27,1.47-1s1.77.46,1.85,1.61a1.49,1.49,0,0,1-1.07,1.75,10,10,0,0,0-1,.31,1,1,0,0,0-.66,1.14c.15.7.71.76,1.29.7a1.42,1.42,0,0,0,.77-.23c2.69-2.37,6.41-2,9.4-3.64.55-.29,1.34-.83,1.89-.21S130.56,87.93,130.39,88.87Z" data-svg-origin="17.054677963256836 42.99696731567383" style="transform-origin: 0px 0px; stroke-dashoffset: 0; stroke-dasharray: none;"></path><path d="M297.73,337.05c-1-1.23-1.6-.88-2.41-.06a16.31,16.31,0,0,1-2.31,1.69c-.58.4-1,.48-1.5-.27-1.08-1.68-3.77-2.06-5.65-1.05-1.41.75-2.92,2.18-4.41,0-.28-.4-.75-.07-1.14,0a3.85,3.85,0,0,1-4.73-3.53c-.05-.59.31-1.45-.36-1.69-2.45-.88-2.5-3.45-3.7-5.18-1.6-2.28.51-4.1,1.38-6,.61-1.34,1.77-1,3-.8,3,.37,4-.55,4.71-3.94.23-1.16.54-1.88,1.79-2.06a3,3,0,0,0,2.21-1.69c1.1-2.16,3.1-3.67,4.07-5.9.41-1,1.44-.94,2.14-1.45a20.25,20.25,0,0,0,6.78-8.89c.69-1.65,1.81-2,3.38-1.09,1.86,1.07,3.41,2.61,5.67,3.09,1.27.27,1.18,1.43-.12,2.18-.72.42-1.8.46-1,1.8.28.46-.28,1.27-.72,1.31-1.59.13-1.88,1.31-2.71,2.34-1.16,1.44-.74,1.77.38,2.56s2.25,1.48,2,3.25c-.15,1.07,1.11,1.43,1.8,2.05.49.45,1.25.81,1.06,1.62s-1,.62-1.56.69a3.27,3.27,0,0,0-3.05,3.1,13.58,13.58,0,0,1-3.94,8.56c-.43.42-.74.93-.27,1.43,1.05,1.14.56,2.06-.24,3.05C297.16,333.57,297.11,335.15,297.73,337.05Z" data-svg-origin="270.9373779296875 294.6489562988281" style="transform-origin: 0px 0px; stroke-dashoffset: 0; stroke-dasharray: none;"></path><path d="M257.43,352c-2.26.94-3.92-.86-5.76-2.19-1.5-1.08-3-2.1-4.57-3.13-2.58-1.76-4.8-3.71-5.58-7-.51-2.15-2.13-3.84-3.76-5.29a6.23,6.23,0,0,1-2.24-3,2.43,2.43,0,0,0-.7-1.24c-3.77-2.93-5.59-8-10.48-9.7a3.58,3.58,0,0,1-1.81-2.14c-.35-.74-.71-1.6-.11-2.32s1.5-.3,2.23.05a4.76,4.76,0,0,0,2.82.17c2.87-.35,4.4.45,5.56,3a1.91,1.91,0,0,0,1.66,1.27,6.5,6.5,0,0,1,4,1.92c2.8,3.18,7.15,4.07,10.08,7,.62.62,1.54.46,2.36.47,1.63,0,2.49.7,2.05,2.43-.32,1.24-.14,2.17,1.3,2.47.87.19,1.17.87,1.34,1.63a4.84,4.84,0,0,0,1.07,2.19,1.4,1.4,0,0,0,1.42.61c.59-.14.69-.61.71-1.11a1.69,1.69,0,0,1,1.54-1.85c1.09-.15,1.11.81,1.39,1.45a4.68,4.68,0,0,0,.94,1.32c1,1.12.76,1.89-.77,2-.79,0-.89.23-1,1a48.75,48.75,0,0,0-.74,7.72C260.3,352,260.09,352.15,257.43,352Z" data-svg-origin="222.09849548339844 315.5957336425781" style="transform-origin: 0px 0px; stroke-dashoffset: 0; stroke-dasharray: none;"></path><path d="M356.46,302.34c3.37-.06,3.77.35,3.69,3.55a8.67,8.67,0,0,0,0,1.84c.3,1.57,1.59,2.23,2.9,2.57s1.62-.9,2.06-1.83a9.31,9.31,0,0,1,3.48-4.44c.7-.4.75-1,.95-1.71.78-2.69,2.05-3.31,4.69-2.64a7.44,7.44,0,0,0,6.58-1.35c1.53-1.16,2.45-.84,2.5.84.12,3.82.55,7.7,0,11.44s0,7.61-.24,11.4c0,.55,0,1.1-.06,1.64-.24,1.43-1,1.89-2.31,1.12-2.47-1.46-3.62-1.39-5.87.36a7,7,0,0,1-1,.72,1.17,1.17,0,0,1-1.51-.06,1,1,0,0,1,.08-1.46c.76-.76.94-2.27,2.55-2,.77.15.66-.49.65-.95-.06-4.2-4.15-7.25-8.37-6.7a18.25,18.25,0,0,1-7.94-.38c-1.23-.4-2,0-2.06,1.38,0,.66-.3,1.25-1.05,1.29s-1-.6-1.06-1.25a1.72,1.72,0,0,0-.54-1.29c-1.91-1.45-1.41-2.49.51-3.33a2.15,2.15,0,0,0,.68-.46c.56-.58,2.06-.9,1.52-1.75s-1.34.42-2,.76c-1,.51-1.9.72-2.82-.13a2.26,2.26,0,0,0-1.09-.49c-.62-.11-1.5.29-1.54-.81a2.31,2.31,0,0,1,.87-2.37,7.58,7.58,0,0,0,2.59-2.57C354.13,302,355.53,302.5,356.46,302.34Z" data-svg-origin="349.7810363769531 297.64068603515625" style="transform-origin: 0px 0px; stroke-dashoffset: 0; stroke-dasharray: none;"></path><path d="M331.45,172.46c1,1.27.28,4.91-1,5.54s-2.26.41-2.53-1-.93-1.59-2.16-.52a2.4,2.4,0,0,1,1.85,2.3c0,1.18-.92,1.78-1.84,2.27a2,2,0,0,0-1,1.9c-.05.61-.08,1.32-.85,1.46s-1.31-.58-1.85-1.08-.91-.89-.37-1.58a2.59,2.59,0,0,0,.71-1.58,1.51,1.51,0,0,0-1.57.94,3,3,0,0,1-1.94,1.39c-.89.25-1.91.91-2.61-.17s.59-1.34,1-2c.18-.3.49-.54.57-.85.88-3.56,4.13-5.1,6.36-7.5a2.52,2.52,0,0,1,.49-.37c.77-.47,2.13.07,2.38-1.21a10.41,10.41,0,0,0,0-4.27,13.09,13.09,0,0,0-.56-1.55c-.29-.77-.37-1.59.51-1.93,1.07-.42,1,.56,1.12,1.18.25,1,.73.73,1.32.26,2.15-1.72,1.77-4.11,1.32-6.25-.52-2.47-.77-5.18-3.1-6.93-.82-.62-1.22-1.82-.3-2.49s1.69-2,3.19-1.1c1,.59,2.08,1,3.06,1.63a3.5,3.5,0,0,1,1.88,3c-.09,4.25,2.53,7.45,4.22,11a3.72,3.72,0,0,1,.52,2.9c-.15.47-.48,1-1,.68-1.76-1.2-1.61.21-1.68,1.19A5.6,5.6,0,0,1,331.45,172.46Z" data-svg-origin="316.0856628417969 147.01734924316406" style="transform-origin: 0px 0px; stroke-dashoffset: 0; stroke-dasharray: none;"></path><path d="M316.1,323.9c2.39,1,3.85,2.41,3.27,5,2.32,2.47-.81,3.42-1.44,5.07-.2.53-.79.46-1.27.43s-1.14-.3-1.14-.95a2.09,2.09,0,0,0-1.13-2,1.28,1.28,0,0,1-.58-2,1.18,1.18,0,0,0,0-1.52c-.28-.28-.64-.14-.94.05-.71.44-.52,1-.23,1.6.12.24.27.62.17.77-1.67,2.39-.33,5.06-.78,7.56-.14.8-2.66,2.64-3.37,2.39-1-.36-.78-1.21-.52-1.91a7.14,7.14,0,0,0,.6-3.19,3,3,0,0,0-1.17-2.28c-1.69-1.25-1.8-2.78-.46-4.39a6.22,6.22,0,0,0,1.25-4,3.79,3.79,0,0,1,1.23-3.13,1.74,1.74,0,0,0,.57-1.82c-.36-2.41.78-4.1,2.24-6,1.93-2.53,4.24-2.55,6.85-2.5,3.38.06,5.8-1.7,7.76-4.29.53-.7,1.07-2.11,2.08-1.47s.13,1.81-.3,2.69a8.06,8.06,0,0,1-7.7,4.77,12,12,0,0,0-6.68,2.24,4.69,4.69,0,0,0-1.73,4.57c.08.9.92,1.83,1.82.62,1.43-1.93,3.74-1.77,5.62-2.6.91-.4.92.35.6,1.07A11.14,11.14,0,0,1,316.1,323.9Z" data-svg-origin="306.1936950683594 305.157470703125" style="transform-origin: 0px 0px; stroke-dashoffset: 0; stroke-dasharray: none;"></path><path d="M287.53,356.4a33.92,33.92,0,0,0-5.8.68c-3.52,1-7.1-.8-10.47.35-3,1-5.94-.26-8.92,0-1,.1-2.12-1-3.11-1.71-.38-.26-.07-.72.13-1.1,1.09-2.06,2.69-3.32,5.1-3,2.1.32,4.33,0,6.16,1.69,1,.95,5.26-.23,6.4-1.58a1.92,1.92,0,0,1,2.3-.79,2.24,2.24,0,0,0,1.2.18c2-.6,3.6-.63,4.4,1.9.3.94,1.46.15,2.2,0s1.76-.6,2.44.3a2.27,2.27,0,0,1,.43,2.49C289.52,356.81,288.64,356.55,287.53,356.4Z" data-svg-origin="259.05023193359375 350.78369140625" style="transform-origin: 0px 0px; stroke-dashoffset: 0; stroke-dasharray: none;"></path><path d="M312.42,252.55a15,15,0,0,1-1.1,3.32,4.85,4.85,0,0,0,.34,5.57c.64.87,1.21,2.14,2.33.32a1.66,1.66,0,0,1,1.9-.42c.75.23,1.43.46,1.93-.41a.6.6,0,0,1,.36-.19c.42-.09,1.11.1,1,.35-.52,1.58,1.6,2.55,1,3.9-.35.76-1.37.19-2-.25-2.4-1.7-4.7-.62-6.84.44-1.2.59-2.13,1-3.06-.13a34.45,34.45,0,0,1-3.06-4.08c-.69-1.16-1.65-2.17-.45-4,.62-.94.47-3.23.07-4.9a5.67,5.67,0,0,1,.06-3c.22-.75.71-1.26,1.48-1.14,1.24.19,2.45.88,3.75.17.08,0,.47.18.47.28C310.61,250.05,311.87,251.26,312.42,252.55Z" data-svg-origin="304.199462890625 247.91250610351562" style="transform-origin: 0px 0px; stroke-dashoffset: 0; stroke-dasharray: none;"></path><path d="M327.39,290.09c-3.75-.23-3.79-.27-3.71-3.9,0-.51.08-1-.46-1.23s-1.12-.31-1.32.11c-.82,1.7-3,.57-4,2.05-.31.47-.79-.22-.85-.72a2.11,2.11,0,0,1,1.11-2.24,3.31,3.31,0,0,0,1.51-1.6c.54-1.21,1.28-1.65,2.59-.86,1,.59,2.53-.73,2.76-2.31.09-.61-.05-1.26.7-1.53a1.72,1.72,0,0,0,1.25-2.39c-.2-.64.09-1.29.75-1,1.31.5,2.93,1,3.38,2.39a30.77,30.77,0,0,0,1.62,4.39c.79,1.62-.92,2.73-1,4.22,0,.35-.53.23-.85,0s-.55-1-1.13-.51a1.38,1.38,0,0,0-.21,1.7c0,.07.07.12.1.19C330.63,289.37,330,290.24,327.39,290.09Z" data-svg-origin="317.0181579589844 274.3988952636719" style="transform-origin: 0px 0px; stroke-dashoffset: 0; stroke-dasharray: none;"></path><path d="M155.53,59.42c1.28.21,1.44.89,1.08,1.82-.61,1.57-2,2.18-3.42,2.66a24.47,24.47,0,0,0-11.09,7.23c-1,1.11-2.62,1.5-3.17,3.17s-1.29,3.47-.6,5.35c.25.69.48,1.38-.55,1.58-1.8.34-3.59-1.56-4.26-3.09-1.33-3,1.11-4.15,2.49-5.66,2.62-2.86,5.55-5.43,8.25-8.23a6.48,6.48,0,0,1,4.6-2.33A9,9,0,0,0,154,60.14,8,8,0,0,1,155.53,59.42Z" data-svg-origin="133.1356964111328 59.41999816894531" style="transform-origin: 0px 0px; stroke-dashoffset: 0; stroke-dasharray: none;"></path><path d="M322.14,143.33a2.14,2.14,0,0,1,.9-2.72c.56-.46-.27-1.88-.89-2.7-.5-.64-1.13-1.19-1.65-1.83s-.84-1.15-.35-1.85a1.6,1.6,0,0,1,1.86-.47,9.64,9.64,0,0,1,1.74.59,5.18,5.18,0,0,0,5.74-.95c1.66-1.48,1.88.41,2.72.8,1,.45,1,1.11.32,1.94-1,1.17-1.84,2.36-1.12,4.07.36.88-.25,1.43-1.13,1.55s-1.63.17-2.45.21c-1.43.08-2.24.61-1.18,2s-.51,1.77-.9,2.51c-.54,1-1.07.06-1.55-.36C323.34,145.36,321.43,145.45,322.14,143.33Z" data-svg-origin="319.9070129394531 132.84226989746094" style="transform-origin: 0px 0px; stroke-dashoffset: 0; stroke-dasharray: none;"></path><path d="M165.44,311.09c-.18-1.76.52-3.44,1-5.14.36-1.3,1.85-1.62,3-.59a11.59,11.59,0,0,1,3.85,8.12c.16,2.81-2.85,4.82-5.57,4.06a2,2,0,0,1-1.45-1.56A14.25,14.25,0,0,1,165.44,311.09Z" data-svg-origin="165.4110870361328 304.7482604980469" style="transform-origin: 0px 0px; stroke-dashoffset: 0; stroke-dasharray: none;"></path><path d="M317.9,188.6s.45-1-.68-.63c-1.38.46-2.3-.07-2.53-1.21a2.66,2.66,0,0,1,2-3c3.55-1.35,4.81-.51,5.27,3.36.17,1.4.61,2.78.14,4.22-.15.46-.09,1-.75,1C320.09,192.44,317.88,190.32,317.9,188.6Z" data-svg-origin="314.6574401855469 183.1584930419922" style="transform-origin: 0px 0px; stroke-dashoffset: 0; stroke-dasharray: none;"></path><path d="M303.46,226.75c-.27,2.84-.53,5.48-.78,8.13,0,.39,0,.88-.47,1s-.67-.34-.95-.62a8.52,8.52,0,0,1-.88-10.49c.44-.6,1-1.27,1.83-1.08s.9,1,1.05,1.62A12.25,12.25,0,0,1,303.46,226.75Z" data-svg-origin="298.97625732421875 223.65713500976562" style="transform-origin: 0px 0px; stroke-dashoffset: 0; stroke-dasharray: none;"></path><path d="M323.16,352.64a1,1,0,0,1-1.17-1.28c.06-.52.19-1.27.55-1.48,3.27-2,5.24-5.82,9.4-6.5a4.3,4.3,0,0,0,.57-.2c.64-.21,1.3-1.43,1.85-.46s-.55,1.7-1.31,2c-2.82,1.05-4.37,3.38-5.94,5.67A5.21,5.21,0,0,1,323.16,352.64Z" data-svg-origin="321.9427185058594 342.35003662109375" style="transform-origin: 0px 0px; stroke-dashoffset: 0; stroke-dasharray: none;"></path><path d="M177.51,46.65a2.61,2.61,0,0,0,1.33,2.73,4.11,4.11,0,0,1,.83.58A2.61,2.61,0,0,1,180,53c-.65,1-1.75.38-2.6,0a3.36,3.36,0,0,1-1.81-2.36A4.74,4.74,0,0,0,174.19,48c-.91-.77-.52-1.77.12-2.56.49-.58.9-1.61,1.91-1.14A2,2,0,0,1,177.51,46.65Z" data-svg-origin="173.653564453125 44.18059539794922" style="transform-origin: 0px 0px; stroke-dashoffset: 0; stroke-dasharray: none;"></path><path d="M308,278a6.44,6.44,0,0,1-.59,1.61q-2.76,4.19-5.65,8.3c-.36.51-.85,1.43-1.58.95s-.39-1.5.08-2.18c1.2-1.74,2.43-3.47,3.72-5.15a6.57,6.57,0,0,0,1.59-4.32c0-.68-.31-1.75.73-1.85s1.18,1,1.5,1.7A4.7,4.7,0,0,1,308,278Z" data-svg-origin="299.7568054199219 275.3536071777344" style="transform-origin: 0px 0px; stroke-dashoffset: 0; stroke-dasharray: none;"></path><path d="M44,111.88c2.33.09,4.48,1.56,4.25,3a2.33,2.33,0,0,1-2.07,2.21c-1,.08-4.43-2.7-4.28-3.45C42.07,112.59,42.65,111.76,44,111.88Z" data-svg-origin="41.895233154296875 111.86843872070312" style="transform-origin: 0px 0px; stroke-dashoffset: 0; stroke-dasharray: none;"></path><path d="M321.16,275.14c.15,1.18-1.39,2.27-.86,3.92.18.59-.88.66-1.47.41-.84-.37-2.15-.78-1.57-1.9a7,7,0,0,0,.75-3.63,1.39,1.39,0,0,1,1.75-1.27C321,272.86,321,273.88,321.16,275.14Z" data-svg-origin="317.116455078125 272.62213134765625" style="transform-origin: 0px 0px; stroke-dashoffset: 0; stroke-dasharray: none;"></path><path d="M339.49,302.21c.62-.1.71-1.38,1.57-.88s.13,1.09.08,1.65a2.44,2.44,0,0,0,0,.6c.12.7,1.61,1.11.87,1.76s-2.47.39-3.21,1.63c-.19-.17-.47-.3-.55-.51a29.15,29.15,0,0,1-1.06-3.28c-.19-.87-.12-2,.69-2.39C339,300.28,338.8,301.83,339.49,302.21Z" data-svg-origin="337.10198974609375 300.68804931640625" style="transform-origin: 0px 0px; stroke-dashoffset: 0; stroke-dasharray: none;"></path><path d="M348.09,318c0,.92-.73,1.14-1.4,1.19a20.4,20.4,0,0,0-6.3,1.53c-.53.22-1.1.31-1.42-.32s.1-1.07.57-1.35a22.29,22.29,0,0,1,6.91-2.32C347.21,316.52,347.81,317.19,348.09,318Z" data-svg-origin="338.85791015625 316.6910400390625" style="transform-origin: 0px 0px; stroke-dashoffset: 0; stroke-dasharray: none;"></path><path d="M326.13,269.16a7.39,7.39,0,0,1-3.79-2.38,1.22,1.22,0,0,1,.46-2c1.12-.52,2.37-1.12,3.24.36a26.73,26.73,0,0,1,1.23,3.24C327.68,269.31,326.61,269,326.13,269.16Z" data-svg-origin="321.99310302734375 264.2073669433594" style="transform-origin: 0px 0px; stroke-dashoffset: 0; stroke-dasharray: none;"></path><path d="M222,56.91a3.43,3.43,0,0,0,2.45-.24A1.12,1.12,0,0,1,226,57.73c.1.74-2,2.8-2.88,2.8a2.45,2.45,0,0,1-2.65-2.06C220.22,57.34,220.63,56.75,222,56.91Z" data-svg-origin="220.40089416503906 56.58403396606445" style="transform-origin: 0px 0px; stroke-dashoffset: 0; stroke-dasharray: none;"></path></g></svg>