<svg id="Path" xmlns="http://www.w3.org/2000/svg" viewBox="0 0 400 400"><g><path d="M75.4,231.58l-1.89-2.7c.5-.06.89-.1,1.28-.17a10.26,10.26,0,0,0,1.92-.42,22.34,22.34,0,0,0,2.94-1.46A7.7,7.7,0,0,0,81,225.66c1-.92,1.92-1.51,3.31-.79a27.07,27.07,0,0,0,3.19,1.32,1,1,0,0,0,.7-.09,8.59,8.59,0,0,0,1.69-1.23,5.81,5.81,0,0,0-1,.15c-1.27.47-1.29.49-1.93-.67-.32-.59-.59-1.21-.94-1.93H83.69l.84-.76-1.07-1.17a10.19,10.19,0,0,0-1.55,0c-1,.14-1.24-.54-1.42-1.21-.07-.26.23-.61.39-1l-.43-.23s0-.12.07-.13a7.63,7.63,0,0,1,1.78-.45,9.38,9.38,0,0,0,5.5-1.7,2.43,2.43,0,0,0,.61-1.6c0-.36-.27-.76-.44-1.18a2.69,2.69,0,0,0-.59.16c-1.18.67-1.11.31-1.52-.79a.71.71,0,0,1,.34-.62c1.28-.46,2.59-.85,3.88-1.29a1.13,1.13,0,0,1,1.28.25,22.28,22.28,0,0,0,1.86,1.46c.44-.37.53-1.41,1.58-.73-.22-.91-1-1.95.72-1.93-.49-1.36.42-2,1.36-2.94l-1.49.18.47-1.26c-.54-.14-1.11-1.4-1.09-2.45s1.5-2.25,3.08-2.71c-1.2-1.24-2.28,0-3.45.06l-.91-1.59c-.31.6-.56,1.07-.91,1.76l-1.12-2c-.22.27-.49.58-.86,1-.2-.71-.4-1.38-.62-2.13,1.3-.16,2.14-.61,2.4-1.89.08-.41.66-.73,1-1.05a1.16,1.16,0,0,0,.4-1.52,7.16,7.16,0,0,1,0-2.28c-.73-.09-1.27.41-1.75,1a9,9,0,0,1-1.07,1.3,1.62,1.62,0,0,1-2,.07l3.12-2.6-.64-.25c-.32-1.66,1.34-2.36,1.78-3.66.07-.22.61-.27,1-.43l.08-.74a1.43,1.43,0,0,1-1.56-2.09l-.59-.28.06-.27,1.5.27a3.24,3.24,0,0,1,.17-.82,1.23,1.23,0,0,1,.61-.64,2.58,2.58,0,0,0,1.44-1.31c.08-.13,0-.38,0-.56l.92-.45-1.12-.85c.26-.43.53-.85.78-1.29s.48-.88.76-1.4l.46.68c.48-.39.63-1.42,1.65-.65-.08-.44-.14-.72-.17-.88l1-1.13.52.26,2.07-2.11c.62.49,1.66.55,1.5,1.82,2-.82,3.58.48,5.47.85-.89,3-3.61,3.13-6,4l.86.33a2.56,2.56,0,0,1,0,.27l-2.37.69a6.56,6.56,0,0,0,1.53.5,6.8,6.8,0,0,1,3.54,1l3.5,2.32s0,.07,0,.1q-1.64,1.92-3.3,3.83a14.71,14.71,0,0,0-1.26,1.37,2.18,2.18,0,0,1-2.52,1.22l.73,1.71c-1.25.78-2.77-.08-4.3.36.59.4,1,.73,1.49,1,.91.59,1.81,1.23,2.78,1.74a3,3,0,0,1,1.56,3.14,47.8,47.8,0,0,1-.8,6.07c-.28,1.37,0,2.31,1.25,2.93a1.82,1.82,0,0,1,1.06,1.6,13.94,13.94,0,0,0,.67,2.44c-.93.34-.83,1-.63,1.74a20,20,0,0,1,.38,2.19l-.26.08-1-.65c.32,1.27.59,2.41.9,3.54.12.46.08.74-.41,1a14.81,14.81,0,0,0-1.74,1.15c.32.26.67.78,1,.77s.68-.53,1.2-1a17.1,17.1,0,0,0,1.81,1c1.36.56,1.82,1.56,2.27,3a2.82,2.82,0,0,1-.79,3.06c-.53.65-1,1.34-2,1.28-.3,0-.62.53-1,.81a1.23,1.23,0,0,1-.47.32c-.79.23-1.88.12-1.6,1.51,0,0-.18.12-.41.26l2.57,1.3a3.1,3.1,0,0,1-2.6,2.18c-1.19.2-2.35.64-3.54.83a2.27,2.27,0,0,1-1.74-.29c-.9-.95-2.1-.93-3.16-1.08A2.57,2.57,0,0,1,94.94,233l-3.5-.63c-.09.31-.18.67-.31,1.14l-2.62-.64c-.24-1.8-1.72-2.32-3.21-2.81a.8.8,0,0,0-.64.24c-.59.7-1.14,1.44-1.76,2.25-.44-.37-.93-.77-1.41-1.19a5.63,5.63,0,0,0-3.37-1.45,2.18,2.18,0,0,0-2.25,1.1C75.78,231.16,75.65,231.28,75.4,231.58Z" data-svg-origin="73.51000213623047 171.8500518798828" style="transform-origin: 0px 0px; stroke-dashoffset: 0; stroke-dasharray: none;"></path><path d="M74.79,104.41c.39.56.63,1.26,1.1,1.48s1.07-.14,1.57-.36.75-.51,0-.9l.82-.3c-.67-1.2,0-2.16.66-3.28l-3.4-2.29.52-1.5,4,1.79c-.27.92.7.9,1.33,1.23l-.9-1.88,2.72.31a1.67,1.67,0,0,1,.16-1.42c.27-.35,0-.84-.63-.62-.78.28-1.08,0-.93-.75l-2.58-.67-.93-2.1c1.4-.67,1.49-.65,1.84.61.27-.58.49-1,.7-1.49l.18,0v1.92l1.44-.75-.87-.76,1.06-1.13.49.57c.57-.27.44-1.42,1.58-1-.16.79-.31,1.6-.49,2.48l1.35-.33-1,1.16,1.14-.33a14.87,14.87,0,0,1-.21-1.7,3.27,3.27,0,0,1,.24-1.28c.23-.52.56-.5,1-.14a2.26,2.26,0,0,1,.75,2.86c-.42,1.38-.32,1.55.44,2.31-.53.74-.53,2.1-1.86,1.75L85,99.36c.81.66-.28,1.06-.15,1.77l1.39-1.94.94,1.77a13.27,13.27,0,0,0,1.45-1.56,16.8,16.8,0,0,0,1-2.08,9.3,9.3,0,0,1,1.26.66.82.82,0,0,1,.18.65c-.12.66-.3,1.31-.46,2a18,18,0,0,1,3.74-.88v.61c0,.17,0,.35,0,.52.83.34,1.32.14,1.16,2.4a10,10,0,0,0,1.48-.45c1.11-.53,1.14-.54,1.4,1a17.79,17.79,0,0,0,1.2-1.36c.61-.82,1-1,1.82-.47a.94.94,0,0,1,.38.66c0,.92,0,1.84,0,2.79h3l.08.42-2.64.84c.72,1.56.68,1.68-.88,2.51l1.15.66-.25.09c.23,1,.47,1.92.72,2.93l-1.49.64,1,.73,0,.17-1.47-.22.72,1.29-.08.25-1.65-.61c.2.45.37.8.48,1.06l-6.36,2.49c-.08-.5-.13-.8-.19-1.2-1.27.22-2.54.41-3.8.65a1.73,1.73,0,0,1-2.1-1.26,2.17,2.17,0,0,0-.56.36.88.88,0,0,1-1.4,0,1.44,1.44,0,0,0-2.16-.17,1.5,1.5,0,0,1-1.36-.16,55.17,55.17,0,0,1-4.28-3.64,1.83,1.83,0,0,1-.34-1.58,2.23,2.23,0,0,0-1-2.74c-1-.71-1.84-1.5-2.82-2.18-.55-.38-.5-.71-.18-1.16Z" data-svg-origin="73.6919174194336 90.71847534179688" style="transform-origin: 0px 0px; stroke-dashoffset: 0; stroke-dasharray: none;"></path><path d="M77.4,213.7l-.22-.07a44.69,44.69,0,0,0-4.55-1.6,3.07,3.07,0,0,0-2,.6,1.28,1.28,0,0,1-1.54.13c-.44-.31-.71-.2-1.06.13a1.52,1.52,0,0,1-2,.27,1.16,1.16,0,0,0-.68-.16c-1.46.17-2.59-.54-3.81-1.38.34-.25.66-.46.85-.6l-1.73-1.3.83-.22-1.35-2.11,2.83-.59.09-.3-1.85-1.36c.43-.35.43-.35,2.46.4.06-.37,0-.91.22-1.06A6.38,6.38,0,0,1,66,203.39a2.64,2.64,0,0,0,2-1.3,11.57,11.57,0,0,1,1.12-1.35l-.91-.67c.23-1.56.08-1.78-1.59-2.39.1-1.36.38-1.66,1.63-1.76.35,0,.71,0,1.07,0l.94-.05a2.77,2.77,0,0,0,.1-.26l-1.26-.69,1.12-1.59-.75-.05-.09-.2,2.11-1.19c.53.63,1.09,1.28,1.63,2a3.92,3.92,0,0,0,2.27.53,8.21,8.21,0,0,1,1-.51,5.9,5.9,0,0,1,1-.17c.15-1.16-1.17-.91-1.62-1.73a3.52,3.52,0,0,0,.77-.1,4.92,4.92,0,0,0,.9-.42c.13-.06.27-.27.33-.25,1,.42,1.05-.43,1.24-1,.29-.82.84-.81,1.37-.43a3.4,3.4,0,0,0,2.5.31c.64-.06,1,0,1.21.52a2.4,2.4,0,0,0,2,1.58,3.34,3.34,0,0,1,.5.18c.82.31,1.56.62,1.34,1.79a5,5,0,0,0,.25,1.48c.18,1,.08,1.26-.8,1.75.31.37.82.72.89,1.13s-.38.93-.44,1.42c-.13,1-.75,1.16-1.62,1.14a7.33,7.33,0,0,0-1.58.3l0,.25-.85-.3c.3,1-.53.63-.81.8l-.44,4.19-.84-.3c-.16,1-.28,1.91-.48,2.83a1.66,1.66,0,0,1-.5.77c-.74.72-1.58,1.35-2.26,2.12A12.61,12.61,0,0,0,77.4,213.7Z" data-svg-origin="60.13999938964844 189.56089782714844" style="transform-origin: 0px 0px; stroke-dashoffset: 0; stroke-dasharray: none;"></path><path d="M283,91.13l.32-.94c-.1-.62-1.6-.53-.7-1.62l-2-1.09-3,.94a6.34,6.34,0,0,1-2.75-3.93,5.32,5.32,0,0,1,.65-.3c.7-.23,1.38-.45.56-1.32a.3.3,0,0,1-.06-.25c.43-.66-.11-1.23-.14-1.77,0-.93-.53-1-1.09-1.15l-.37-.13c.06-.85,0-1.72,1.37-2l-1.26-1.7c.21-.36.51-.91.75-1.34.17-.87.32-1.68.47-2.48-.88,1.24-1.51-.35-2.67-.25.44-.94.8-1.7,1.21-2.59-.06-.15-.19-.5-.35-.89l1.27-.45v-.22l-1.08-.19-.18-.18,1.14-.61-1-.37c.48-.88-.27-1.2-.91-1.77l1.63-1.09-.1-.15-1.32.39-.2-.22.81-1.87-1.44.42c-.18-.49-.34-.92-.54-1.49l.95.21c.45-.75-.76-2.06.69-2.31,0-.56,0-1,0-1.54s.07-.81.11-1.21a1.57,1.57,0,0,1,.08-.49c.23-.53.48-1.06.73-1.59.12-.27.18-.62.39-.78a2.54,2.54,0,0,0,.72-3.06,1.7,1.7,0,0,1,0-.38c2.24-.06,3.2-1.72,4.13-3.42.35-.65.76-1.27,1-1.66-.21-1.21-.43-2.2-.51-3.2,0-.31.3-.67.53-1a3.47,3.47,0,0,1,.62-.5c1.34-1.05,2.69-.67,3.35.93.21.52.45,1,.7,1.54a2,2,0,0,1-.33,2.31,20.68,20.68,0,0,0-1.39,3c-1.11,2.35-2.28,4.67-3.35,7a2.85,2.85,0,0,0,0,1.64c.28,1.11.69,2.19,1,3.29-1.34.41-1.42.69-.36,1.69l-1.25-.14c.26.57.48,1.05.74,1.64l-1,.3.93.71c-.74.92.11,1.69.32,2.71l-1.16-.24-.11.16a6.29,6.29,0,0,1,.89.6,1.61,1.61,0,0,1,.5.78c.13.82.13,1.65.24,2.47.25,1.71.13,1.91-1.55,2.36l1.35.24c-.19.41-.37.77-.58,1.23l1-.11-.68.94,1,.32-.73,1.11c1.28.68,1.34,1.77.21,2.48,0,0,.05.13.09.14,1.45.33,1.73,1.5,2,2.7a2.15,2.15,0,0,0,.65,1A18.66,18.66,0,0,0,292.36,87c1,.23.4,1,.57,1.71h-2.51l0,.18.88.64v.24l-3.42.43c.1.27.25.65.37.95Z" data-svg-origin="272.0199279785156 39.00092697143555" style="transform-origin: 0px 0px; stroke-dashoffset: 0; stroke-dasharray: none;"></path><path d="M121.9,326.33l-.77-.37a2.25,2.25,0,0,1,.07-.52A6.41,6.41,0,0,0,121,320c-.3-.63-.23-.66.68-2.65a9.35,9.35,0,0,1,.61,1,.86.86,0,0,0,1.11.59,8.11,8.11,0,0,0,3.65-1.53,1,1,0,0,1,.91-.07,10.74,10.74,0,0,1,1.68,1.69c.09.11-.29.6-.46.94.21.67.43,1.51.75,2.3a1.18,1.18,0,0,1-.53,1.6,2.45,2.45,0,0,0-1.14,2.06c-.26,1.7-.54,3.4-.88,5.08a19.49,19.49,0,0,1-.78,2.29c-.67-.48-1.19-.84-1.69-1.23-.8-.64-1.07-.58-1.48.39-.22.5-.45,1-.68,1.49l-2-1-.06-.44c-.84-.81-.84-.81-.41-1C119.37,329.32,120.69,327.89,121.9,326.33Z" data-svg-origin="119.97750091552734 317.2621765136719" style="transform-origin: 0px 0px; stroke-dashoffset: 0; stroke-dasharray: none;"></path><path d="M130.83,304.52c.69.35.51.83.41,1.33-.14.72-.21,1.45-.35,2.16a22.63,22.63,0,0,1-.84,3.79c-.63,1.65-1.51,3.2-2.35,4.93l-2.27-2.17.65-.81-1-.65c.1-.7.2-1.39.31-2.18s0-1.87,0-2.85a1,1,0,0,1,.58-.61,9.36,9.36,0,0,1,2.6-.65,1.55,1.55,0,0,0,1.63-1.06C130.43,305.34,130.63,305,130.83,304.52Z" data-svg-origin="125.08000946044922 304.5199890136719" style="transform-origin: 0px 0px; stroke-dashoffset: 0; stroke-dasharray: none;"></path><path d="M282,105.65c-.74,1-1.47,2.08-2.21,3.1-.27.37-.63,1-.82,1a3.92,3.92,0,0,1-1.84-.89,4,4,0,0,1-.18-4.86,1,1,0,0,1,.72-.35A6.64,6.64,0,0,1,282,105.65Z" data-svg-origin="276.2138366699219 103.6500015258789" style="transform-origin: 0px 0px; stroke-dashoffset: 0; stroke-dasharray: none;"></path><path d="M378.25,209.19c-.32-.8-.68-1.57-1.08-2.48-.7,0-1.46.06-2.23.14s-1.7.24-2.56.3a.94.94,0,0,1-.68-.37c-.48-.78-.88-1.62-1.36-2.4a1.11,1.11,0,0,0-.7-.41c-2.39-.43-4.79-.83-7.1-1.22-.84-1.33-1.68-2.64-2.5-4a2.63,2.63,0,0,1-.51-1.05,57.38,57.38,0,0,1-.51-6.12c0-1.61-1.23-1.58-2.11-1.89-.38-.13-1,.47-1.54.76-.07,0-.11.14-.17.2-1,.94-1,2.59-2.31,3.32,0,0,0,.05,0,.08-.23,1.39-1.23,1.89-2.45,2.27a3.21,3.21,0,0,1-2.72-.29,27.18,27.18,0,0,0-3.79-2.38,18.74,18.74,0,0,1-3.49-2.37,23.64,23.64,0,0,1,1.21-2c1.66-2.24,3.36-4.46,5.06-6.67a3.41,3.41,0,0,0-.05-4,.79.79,0,0,0-.38-.18c-1.56-.48-3.12-1-4.67-1.44a.78.78,0,0,1-.41-.28,10,10,0,0,1-.87-1.53,3.25,3.25,0,0,1-.21-1.35,15.38,15.38,0,0,1,.32-1.9c.18-1,.42-2,.54-3a4.7,4.7,0,0,0,0-2c-.6-1.83-1.31-3.62-2-5.41-.91-2.24-1.88-4.44-2.79-6.68-.68-1.66-1.28-3.34-1.93-5-1-2.64-2.11-5.28-3.13-7.93s-1.89-5-2.82-7.53c-.49-1.31-.92-2.65-1.47-3.94a13.74,13.74,0,0,0-1.31-2.25c-.6-.88-.78-2-1.61-2.77a4.83,4.83,0,0,1-1.33-2.82,9.64,9.64,0,0,1,.78-3.08c.59-2.13,1-4.33,1.81-6.39a35.44,35.44,0,0,0,2-8.95c.28-2.56.41-5.14.74-7.69a3.47,3.47,0,0,0-.79-3.06,53.51,53.51,0,0,0-3.83-3.85c-1.24-1.09-2.59-2-3.16-3.41-2.59,0-5,.1-7.43,0-3.44-.18-6.45,1.21-9.54,2.35-1.59-.58-3.25-1-4.93-1.45-1,1.61-.9,2.1.67,3.12l1.61,1.07c.53-.56.53-.56,1.87,0l0,0,4.81,3.6c-.45.83-.92,1.71-1.46,2.69.22.28.81.73.88,1.25.05.32-.7.75-1.1,1.13l-.29-.11c-.2-.85-.4-1.69-.58-2.5l-2.42-.69a3.72,3.72,0,0,0-1.77,2.6c-.11,1.91-1.32,2.3-2.8,2.55a3.36,3.36,0,0,0-.77.2,2.07,2.07,0,0,0-.71.48,2.64,2.64,0,0,0-.61,3.08,5.37,5.37,0,0,1,.22,1.07c-1-.59-1.53-.2-1.75.83l-.35-.71-.36-.26c-.39.59-.78,1.17-1.16,1.76l-.29-.22c-.14-.77.7-1,1.16-1.56-1.6-.75-.83-2.44-1.7-3.77l1.2-.82a8,8,0,0,0-4.45,4.88c-.1.3-.23.68-.46.81a9.19,9.19,0,0,0-4.18,5.36c-.5,1.43-1.19,2.25-2.78,2,0,0-.06.09-.15.24l2,1.42c-.74.36-1.33.66-1.93.93a1.17,1.17,0,0,0-.79,1.61c.32,1,.55,2,.78,3,.31,1.37.29,1.36-.87,2.09a10.6,10.6,0,0,0-1,.77c-.63-1.22-1.29-.45-1.81-.09l-4.35-2.89c-.29-2.55,1.75-3.31,3.93-4l-3.07-3.61a1.73,1.73,0,0,0-1.74-.59c-2.09.36-4.16,1.06-6.38.42a2.35,2.35,0,0,0,.71.78c1.22.85,2.61,1.56,2.65,3.35a14.14,14.14,0,0,0,.07,1.72c.18,1.26.46,2.51.61,3.77.09.73.38,1,1.1.87a1.29,1.29,0,0,1,1,.24,9.45,9.45,0,0,1,1.17,2,3.15,3.15,0,0,1,.32,1.44c-.05,1-.21,2.09-.33,3.18-.95,0-1,0-1.81-.77a2.35,2.35,0,0,0-1-.58c-2.4-.55-3.23-.06-4,2.27-.08.25-.13.52-.23.77a3.07,3.07,0,0,1-.42.75c-1.1,1.32-2.24,2.61-3.33,3.94a1.77,1.77,0,0,0-.1,2.62c.71,1,1.58,1.85,2.32,2.81.55.72,1,1.52,1.49,2.28l-.28.26c-.21-.09-.43-.28-.64-.28-.55,0-1.25-.07-1.6.22a1.07,1.07,0,0,1-1.48.14,8.17,8.17,0,0,0-1.42-.48,5.22,5.22,0,0,1-1.4-.54,1,1,0,0,0-1.21-.05,1.54,1.54,0,0,1-1.07.09c-1.08-.45-2.12-1-3.23-1.52-.12.27-.27.45-.27.63,0,.67-.07,1.21-.85,1.41-.12,0-.25.61-.14.79.38.59.89,1.1,1.3,1.68a3.92,3.92,0,0,0,4.22,1.8c.48-.1.68.18.8.61a2.08,2.08,0,0,1-2.11,2.56c-1.2-.14-2.38-.39-3.6-.59-.51-1.74-1.4-2.36-3.31-2.31a3.69,3.69,0,0,1-1.05-.13c-.6-.18-.81-.54-.5-1.15.57-1.13.56-1.14-.67-1.45.72-1.78-1-2.67-1.58-4.12.91.13.93-.36.8-.92s-.29-1.11-.44-1.72l.65.14a3,3,0,0,0-.68-.83c-.32-.34-.77-.69-.85-1.09a1.81,1.81,0,0,0-1.48-1.47c-.6-.18-1.22-.34-1.89-.52l.72-1c-.63-.5-1.82-.05-1.84-1.27l-.16,0-1.41-.53-.85-1.84.25-.18c.48.53,1,1,1.42,1.58a2,2,0,0,0,2.34.54.82.82,0,0,1,1.14.32,2.56,2.56,0,0,0,1.87,1.05c2.59.31,5.2.53,7.75,1.07a9.82,9.82,0,0,0,6.59-1.16c1.05-.51,2.13-1,2.08-2.48a.58.58,0,0,1,.09-.25c.54-.94,1.11-1.87,1.61-2.84.31-.61.7-1.28,0-2-.11-.11,0-.4-.07-.6a10.42,10.42,0,0,0-.5-1.92,18.38,18.38,0,0,0-1.33-2.2.74.74,0,0,0-.54-.31,3.14,3.14,0,0,1-2.79-1.45,14.72,14.72,0,0,0-1.31-1.31l-.2.17.37.81c-.15,0-.27.08-.31,0-1.11-1.06-3-.42-4-1.77,0-.06-.16,0-.25-.07a7,7,0,0,1-1.37-.5c-1.06-.65-2.07-1.39-3.12-2.07-.35-.23-.8-.29-1.12-.54a7.06,7.06,0,0,0-5.54-1.65c-1,.16-2.05.45-3.09.69l-.08-1.28h-2.49l-1.24-.73c.38-.55.93-.49,1.83.26.35-.52,1.23-1,.31-1.64a18.49,18.49,0,0,0-3.08-1.27c.18.61.28.92.36,1.2-1.54,1.51-2.91.06-4.32-.18-.58.6-.38,1.94-1.79,1.81.38-1.15.63-2.24-.91-2.84.87-.24,1.73-.23,2.46-.52a13.34,13.34,0,0,0,2.22-1.42,5.63,5.63,0,0,0-.58-.76c-.9-.81-1.86-1.55-2.74-2.38-.42-.41-.72-.27-1.06,0-.61.5-.92.41-1.1-.35,0-.21-.06-.42-.1-.71a3.45,3.45,0,0,0-1.61,2,2.16,2.16,0,0,1-.29.82c-.13.16-.45.15-.68.22,0-.22-.08-.54,0-.66a1.44,1.44,0,0,0,.58-1.4c-.08-.43.48-1.06.32-1.35s-.86-.54-1.31-.81a4.93,4.93,0,0,1-.58-.42c-.68.47-.42,1.84-1.73,1.81l1.61.71c-1.36.21-1.33,1.09-1.37,2,0,.59-.31,1.08-1,.93-.44-.56,1.08-1.48-.42-1.68l.69-2.11-.27-.13a7.77,7.77,0,0,0-.63,1c-.27.56-.31,1.44-.73,1.67-1,.55-1,1.5-1.39,2.34-.24.59-.52,1.11-1.28,1.23a7.16,7.16,0,0,1,2.31-5.43,3,3,0,0,0-3.1-1.08c-.29.12-.35.82-.53,1.26,0,0-.08.07-.12.11l-.76-.23a1.35,1.35,0,0,0,.31.86,1.27,1.27,0,0,1-.48,2.08,12.94,12.94,0,0,1-1.47.52c-.23.9-.44,1.77-.65,2.65l-.23.08-.64-1.6c-.47,0-1,.24-1.44.06s-.5-.74-.75-1.16l-.65.8-.55-.8-1.4.75c0,1.06,1.77.51,1.43,1.83-1.26-.81-.77,1.31-1.76.89l-.41-.77c-.24.29-.42.51-.67.83-.6-1-1.27-.7-2-.17a7.87,7.87,0,0,1-.87.44,7.1,7.1,0,0,0-1.69,1.12,2,2,0,0,1-2.06.68c-.14.31-.26.64-.43,1-.33.58-.56,1.38-1.07,1.68a2.71,2.71,0,0,0-1.08,1.54c-.33.73-.53,1.74-1.8,1.63-.43,0-.9.46-1.42.76,1.09.86,2.6.06,3.44,1.17-1.13,0-2.16,0-3.19,0a5,5,0,0,0-1.22.43l.15.33c-1.23-.42-1,.6-1.27,1.22h-1.7l0,.2,1.84.39V125l-3.42.67c.7.45.49.83.1,1.26.58-.3,1-.7,1.54-1a1.05,1.05,0,0,1,.8-.09c.12,0,.27.52.21.58a2.21,2.21,0,0,1-.73.33,13,13,0,0,0-1.79.6,4.58,4.58,0,0,0-1.86,2c-.28.51-.59.9.22,1.5l-3.27.7c.28.33.49.58.77.93-.62.06-1.24-.05-1.56.22s-.28.88-.4,1.38l-.7-.14c-.75,1.49-.75,1.5.68,2l-2,1.13.56,1.26c-.75,0-1.52-.57-1.69.34a4.62,4.62,0,0,0,.37,1.69l-1.68.23,1.37,1.27-2,1.51,1.08.33a2.67,2.67,0,0,1-2.06,1.13c-.78.15-1.57.22-2.24.31l-.36.91c.12.8.22,1.46.31,2.13l-.41.12-.82-1.51c-.59.36-1.48.59-1.68,1.1-.39,1-1.22,1.17-1.91,1.65a8,8,0,0,0-1,1.07c-.42.42-.89.8-1.31,1.22-.16.16-.38.39-.37.58.06.84-.32,1.2-1.13,1.23-.42,0-.83.1-1.24.14-1.47.14-1.78.46-1.86,1.92-.92.25-2.08-.4-2.75.76-1.08-.52-2.14-1.22-3.28-.08l.56.68c-.88,1.21-.87,1.19-2.16.77a7.13,7.13,0,0,0-1.23-.15l-.18.35,1,.51-1,.59.58.24-3.06,1.52-1.18-.69-.13.22-.66-.7-.2.14a4.85,4.85,0,0,1,.33.87c.05.28.1.69-.06.87a4.07,4.07,0,0,1-1.28,1c-.77.35-.57.87-.37,1.39a6.52,6.52,0,0,0,.61,1l-1.62.28c.11.36.21.65.31.94-.69.29-.82.69-.31,1.14a2.41,2.41,0,0,0,1.19.51,15.11,15.11,0,0,0,1.92,0c-.83,1.08-1.34,1-3.47-.19a23.84,23.84,0,0,0-.56,2.69,4,4,0,0,0,.43,1.39l1.26-.54a1.59,1.59,0,0,1,.34,0,3.38,3.38,0,0,1-.22,1.06c-.54.86-1.46.86-2.66.79.54,1.27,1,2.35,1.46,3.41.82-.15.9-1.38,1.91-1-.25,1.29-1.54,1-2.3,1.6a3.6,3.6,0,0,1,.47.88,3.15,3.15,0,0,1-.14.94,7.46,7.46,0,0,1-.94-.33c-.12-.07-.15-.32-.23-.51-.52.33-1,.63-1.43.88s-.55.57-.19,1.05a12.17,12.17,0,0,1,.85,1.62h2.29l.07.25c-.2.18-.38.45-.62.53a1.68,1.68,0,0,0-1.28,1.32c0,.17-.37.28-.57.41a3.33,3.33,0,0,1-.26-.58,4,4,0,0,1-.06-.72,3.66,3.66,0,0,0-.56,4.15c.6,1.65,1.4,3.09,3.6,3.12l-1.37,1.05c.61.54,1.13,1.39,1.71,1.43a43,43,0,0,0,5.07-.18c.13,0,.25-.17.37-.24s.53-.26.76-.43.61-.48.91-.72l.61-.47c.58-.4,1.17-.8,1.74-1.21.4-.28.78-.57,1.21-.89,0-.06-.13-.21-.38-.58a15.35,15.35,0,0,1,1.94,0,2.73,2.73,0,0,0,3.3-1.59l2.38,1.1c-.06.16-.07.47-.22.56-.62.39-.58,1-.58,1.57a12.54,12.54,0,0,1-.23,1.58,13.71,13.71,0,0,0-.21,2.11,1.27,1.27,0,0,0,1.4,1.29c.27,0,.55-.06.88-.1-.46.95-.91,1.81-1.29,2.71-.23.55-.41,1.13.33,1.53.14.08.12.51.12.78a10,10,0,0,0,0,2.62,33.66,33.66,0,0,0,1.58,3.66c.35.83.66,1.68,1,2.51l-.37-.11-.87.85-.72.69c.11.31.28.81.44,1.28l-3.53.72a2.3,2.3,0,0,0-2.53-.61l1.2.73c-.78,1.05-2,.28-2.94.63a10.43,10.43,0,0,1,.45,1.25,7.36,7.36,0,0,1,.19,1.41c.06,1.8.05,1.8,1.82,2.4-.38.73.15,1,.68,1.26a3.6,3.6,0,0,1,.89.4c.19.15.25.46.36.7a1.87,1.87,0,0,1-.75,0,9.51,9.51,0,0,1-1.2-.88c-.15.5-.24.81-.33,1.13l-.34.26c-.31-.43-.53-1-.95-1.26s-.89-.05-1.35-.05a3,3,0,0,0,.08,1.18,12.78,12.78,0,0,0,1.23,1.61l1.7-.73.23,1c1.06-1,1.56-2.55,3.4-2.43a2.08,2.08,0,0,0-1-.73c-.56-.13-1-.29-.85-1l1.93-.73-.95-2.05c2.31-.21,2.16-2,2.59-3.47a2.23,2.23,0,0,1,.44.83c.12.42.05.95.28,1.29a1.65,1.65,0,0,1-.08,1.82,12.1,12.1,0,0,1-.73,1.18,11.6,11.6,0,0,0,1.6.54c1,.17,2.06.26,3.09.37,1.51.17,2.11-.39,2.15-1.93,0-.62,0-1.24.1-1.86s.41-.84.93-.65c.87.32,1.26.05,1.2-.9,1.23.31,2.41.53,3.52.91a1,1,0,0,0,1.37-.4c.62-.92,1.23-1.84,1.84-2.77l.19,0v2.44l.36.06,3.6-7.78-.29-.18-2.59,3.66c-.1-.17-.26-.31-.23-.4.39-1.43-.24-3.24,1.31-4.07.08-.63,0-1.26.24-1.59a1,1,0,0,0,.17-1.34,2.63,2.63,0,0,1-.15-.64l.75.32c0-.17.13-.31.09-.38a1.61,1.61,0,0,1,.29-2.34.76.76,0,0,0,0-.68,9.78,9.78,0,0,0-.68-1.14l1.47.35c-.24-1.47-.28-1.52-1.39-1.91a3.65,3.65,0,0,1,1.3-.18c1.88.15,2.15,0,2.73-1.84L187,192l.26-.11.73,1.45a6.72,6.72,0,0,1,1-1,8.42,8.42,0,0,1,1.5-.67c-.91-1.28.12-1.39,1.36-1.42L190.53,189l2.7-1.43c-.86-.85-.86-.85-.66-1.55l1.22.34-1.07-2.27c-.53-.16-1.32.35-1.52-.71l.79.19a2.13,2.13,0,0,0-.21-.45c-1.16-1.57-2.13-3.35-4.24-3.89-.49-.12-.6-.47-.54-.95q.38-3.11.73-6.2l1.21.57a5.68,5.68,0,0,1,.68-3.68,2.25,2.25,0,0,0,.06-1.72c-.52-.81-.05-1,.48-1.24a16,16,0,0,1,1.56-.43c-.14-.47-.26-.85-.38-1.24,1.51-.26,2.25-1.14,1.76-2.13A4.53,4.53,0,0,1,194,162a2.42,2.42,0,0,0,2.15-1.55c.36-.68,1.3-1,1.61-1.87,0-.05.17,0,.25-.06a6.68,6.68,0,0,0,5.12-3.68,20.43,20.43,0,0,1,1.19-1.78.9.9,0,0,0,.16-.67,12,12,0,0,0-.87-1.85c-.55-.94-.52-1.36.33-2.1.35-.31.72-.59,1.11-.89l-1.07-1.62c1.08-.93,2-2.17,3.78-1-.77-1.1-.77-1.1-.1-2.49a10.6,10.6,0,0,0,1.17.58c.23.09.69.15.76,0,.45-.74,1.15-.61,1.82-.62h2.48a7.1,7.1,0,0,0,.91,1.53,7.65,7.65,0,0,1,1.82,2.81c.14.61.22,1.25.34,1.93a3.83,3.83,0,0,0-3.28,1.94,49.66,49.66,0,0,0-2.26,4.91,1.53,1.53,0,0,1-.31.41c-.5.5-1,1-1.5,1.5-.61.69-1.21,1.27-2,.6l-1.14,1.64c0,.55-.06,1.28-.09,2a16.15,16.15,0,0,0-2.12-.41c-.47,0-.93.13-.43.81s.36,1.32-.47,1.73a4.31,4.31,0,0,0-.74.49,1.3,1.3,0,0,0-.49,1.54,12.86,12.86,0,0,1,.36,2.9c.07,1.87-.08,3.77,1.56,5.28a3.06,3.06,0,0,0-1.84,2.68c-.06,1.66.05,3.32.13,5,0,.17.28.43.48.48a28.1,28.1,0,0,0,2.86.64c.72.11,1,.33.7,1.09a4.2,4.2,0,0,0-.15.94l1.72-.79c-.33,1.07.12,1.49,1.11,1.69l-1.43,1.51.19.22,1.75-1.29.37.44c1.42-.38,2.69-.75,4-1,1.53-.34,3.13-.5,4.17-1.88l1.65.76-.48-1,.85.09c-.08-1.22.69-.25,1.05-.41,0-.15.08-.34.15-.6,1.13.56,1.86-.25,2.7-.77a3.59,3.59,0,0,0,.79.6,1.19,1.19,0,0,0,.89.1c1.1-.59,2.16-1.26,3.34-2,.17.41.32.73.53,1.21l-1.44-.18c.76.86,1.32,1.55,1.92,2.19a2.2,2.2,0,0,0,1.9.7,7.27,7.27,0,0,1,3.75.9c-.59,1.09-1.46.7-2.23.52-2.08-.46-2.2-.43-3.27,1.31l-.87-.37c-.24,1.45-1.11.62-1.88.52v2.2a18.51,18.51,0,0,1-8.07-.92c-.7-.25-1.1-.11-1.31.56s-.64.82-1.28.85a32.25,32.25,0,0,0-3.54.27,2,2,0,0,0-1.34.7,1.14,1.14,0,0,1-1.16.74,1.13,1.13,0,0,0-1.26,1c0,.26-.3.48-.46.72l1,.32c-.11.68-1.1,1.37-.1,1.82a5.56,5.56,0,0,0,.16,1.38c.37.94.33,2,1.71,2.48.73.23.92.33,1.17-.39.06-.19.43-.29.65-.42.12.21.35.45.33.64a5.07,5.07,0,0,1-.44,1.53,5.48,5.48,0,0,0-.36,3.9,13.61,13.61,0,0,1,.26,2,.73.73,0,0,1-.29.56c-.83.48-1.69.92-2.65,1.42a3.34,3.34,0,0,1-.83-.67c-1.18-1.63-2.31-3.28-3.54-5-.48.14-1.12.36-1.77.51a3.53,3.53,0,0,0-2.52,2.16,8.46,8.46,0,0,1-1.43,2.55c-1.26,1.25-1.24,2.73-1.22,4.27,0,.8.09,1.6.07,2.4,0,1.48-.06,3-.19,4.43a26.23,26.23,0,0,1-.56,2.74c.27-.33.49-.49.55-.7.18-.57.28-1.16.41-1.74h.13v4.23l-2.15-.66.27-.62a1.79,1.79,0,0,0-.93.7c-.32.59-.73.67-1.23.34-.72-.49-1.23-.22-1.65.39a3.09,3.09,0,0,0-.65,1.15c-.24,1.43-1.21,1.9-2.45,2.24-1.74.48-3.37-.35-3.08-2.65l1.29.95a3.69,3.69,0,0,0-2.94-1.87c-1.85.29-3.69.64-5.55.85a4.12,4.12,0,0,0-2.88,1.71,1.45,1.45,0,0,1-.74.55c-2.34.4-4.68.74-7,1.1-.17,0-.32.16-.47.16-.37,0-.89.11-1.06-.08a4.61,4.61,0,0,0-3.13-1.66l0-.31,2-1c-.42-.9-.86-1.84-1.32-2.79a8.22,8.22,0,0,1-1.77,1,3,3,0,0,1-1.93-.06c-.68-.34-1.06-.2-1.27.36a2.14,2.14,0,0,1-2.38,1.38,1.8,1.8,0,0,0-2,1.38,5.91,5.91,0,0,0-1.29-.86,4.79,4.79,0,0,0-1.42,0l-.11-.23a6.39,6.39,0,0,1,1.11-.62c.83-.29.58-1.1.82-1.65.05-.11-.34-.54-.59-.64-1.52-.55-3-1.06-4.63-1.59l1-2.08-1.49-.79c.61-.63.16-1-.39-1.34a1.54,1.54,0,0,1,.15-.29c.05-.07.11-.16.18-.18,1.29-.37,1.51-1.1.84-2.24a.51.51,0,0,1,.43-.84l0,0,2-.85c-.16-.33-.31-.62-.56-1.1l1,.5,1.42-3.2.26.29c.22.31.52.9.64.86a2.75,2.75,0,0,0,1.19-.74,10.37,10.37,0,0,0,1-1.42c-.85-.39-1.21-1.53-2.4-1.47-.21,0-.44-.3-.67-.47l.67-.39a40.14,40.14,0,0,1,1.75-4.47c.34-.79.7-1.57,1-2.38.2-.57-.15-1-.68-.79-1.2.39-2.61.4-3.41,1.65a6.49,6.49,0,0,1-.67.72,2.07,2.07,0,0,1-2.63.58,2,2,0,0,0-2.59.69,10.5,10.5,0,0,1-.69.92,5,5,0,0,0,.35,1.55,2,2,0,0,1,0,.59c-.17-.09-.4-.14-.48-.28a3.47,3.47,0,0,1-.26-.84c-.81.57-1.39,1.11-.58,2.08l-.83.25a11.62,11.62,0,0,1-.46,2.15c-.39.91-.09,1.18.91,1.1l-.08.28-1.18.32c0,.13-.07.36-.14.58a3.46,3.46,0,0,1-.25.66c-.47.86-.38,1.22.48,1.7a1.59,1.59,0,0,1,.43,2.77c.11.35.37.76.26.92-.71,1-.15,2,.1,3s.2,1.27-.76,1.62l-.74.25c1.72,1.15,1.78,1.28,1.34,2.5-.33.92-1,.89-1.74.64-.37.89-.71,1.74-1.07,2.61-1.09-.1-1.89-.55-1.84-1.76-.69-.16-1.3-.28-1.89-.44a2.48,2.48,0,0,0-3.27,1.61,16,16,0,0,1-3.23-.91,2.67,2.67,0,0,0-2.82.26,7.7,7.7,0,0,1-1.63.9,4.61,4.61,0,0,1-2.13.24c-.61-.12-1-.05-1.24.44-.64,1.2-1.26,2.41-1.84,3.64a2,2,0,0,1-.9.94c-.88.5-2.42.44-2.19,2.1l-1.69.68c1.1.92,1.1.92,1,1.69l-2.55-1.06-.18.37,3.34,1.7c-.15.49-.53.57-1,.36a3.84,3.84,0,0,1-.93-.52,3.33,3.33,0,0,0-2.75-.56c-2.41.3-4.83.45-7.26.59a1,1,0,0,0-1,.76,28.4,28.4,0,0,0-.77,3.22,1.34,1.34,0,0,1-1.37,1.36q-2.61.33-5.18.86a3.69,3.69,0,0,0-2.39,1.42l.81.47-.09.31c-.28.06-.58.22-.81.15-1.52-.48-3-1-4.54-1.52-1.07-.4-1.08-.52-.61-1.58a1.33,1.33,0,0,0-.75-2L89,239a16.56,16.56,0,0,0-1,2.57c-.09.41.3.93.52,1.37a1.28,1.28,0,0,1-.07,1.52,9.55,9.55,0,0,0-.8,2.42c-.33-.19-.72-.46-1.14-.66-.83-.38-.64.52-1.07,1l-1.21-1.6a3.91,3.91,0,0,0-.77.17c-1.17.48-1.16.45-1.63-.75a13.12,13.12,0,0,0-1.31-2.59c-.39-.59-1.09-.43-1.41.21a4.29,4.29,0,0,0-.19.54A5.52,5.52,0,0,0,76.05,242c-.88,0-1.76-.28-2.64-.35-.6-.05-1.32,1.08-1,1.57.47.76,1,1.5,1.49,2.24a1.86,1.86,0,0,1-.81-.16,3.13,3.13,0,0,0-.75,0,2.77,2.77,0,0,0,0,.65c.22.65.47,1.29.74,2a2.55,2.55,0,0,1,.73-.31,1.59,1.59,0,0,1,1,.1c1,.8,2,1.71,3,2.54a.67.67,0,0,1,.13,1.06,9.26,9.26,0,0,0-.51,1l.16.09.56-.61,1.27.52-1,.45L81,254l-1.25.85,1.59,1.07c-.68,1.06-.68,1.06.05,2.07-.12.15-.21.36-.37.46-.69.43-.75,1-.59,1.75a4.67,4.67,0,0,0,2.45,3.68,1.37,1.37,0,0,1,.69,1.87,4.56,4.56,0,0,1-1.7,2.72l.59,1.18c-1.11,2.11-2.21,4.21-3.36,6.42l1-.19.13.24-.85.59c-.25.18-.62.32-.74.57-.88,1.84-1.7,3.71-2.57,5.56a1.19,1.19,0,0,1-.59.54c-2.19.73-4,.39-5.28-1.75-.06-.1-.13-.24-.23-.27-.38-.14-.91-.46-1.14-.31-.83.52-1.19.14-1.74-.46-.68-.75-1.52-1.76-2.38-1.87a12.28,12.28,0,0,1-7.79-4.26,7,7,0,0,0-4.3-2.27,28.65,28.65,0,0,1-3.46-.95.81.81,0,0,1-.37-.34c-.65-1.08-1.29-2.18-1.93-3.26l-.9.15c0-.19,0-.35,0-.77-.69.33-1.47.45-1.76.89a2.17,2.17,0,0,1-2.92.69,4.55,4.55,0,0,0-3.8.23c-.72.31-1,.65-.75,1.4a5.18,5.18,0,0,1,.48,2c-.16,1.06-.25,1.94,1.14,2.45l-2,1.35c.39,1,.07,1.84-.88,2.06-.13,1.15-.2,2.14-.35,3.12-.1.58-.39,1.13-.45,1.71-.12,1.27-1.6,1.82-1.59,3.14,0,0-.17.07-.22.14-.24.27-.47.55-.69.83s-.27.6-.5.71a1.34,1.34,0,0,0-.7,1.57,1.37,1.37,0,0,1-.68,1.41c-.85.63-1.6,1.39-2.44,2.05a1,1,0,0,1-.8.16c-.81-.46-1.1-.07-1.39.62a17.57,17.57,0,0,1-1,1.74,2.27,2.27,0,0,0-.38.88c0,.91.1,1.82.14,2.73,0,.65.39.87,1,.87a3.81,3.81,0,0,1,.64.06,9.82,9.82,0,0,1-1.36,6.26c-.64,1-1.42,2-2.13,3-.17.25-.31.53-.53.91a6.18,6.18,0,0,1,4.92,2.4,1.37,1.37,0,0,0,.68.34c1.51.37,3,.73,4.56,1.08A2,2,0,0,1,34,315.48a9.1,9.1,0,0,0,.73,1.42,2.34,2.34,0,0,1,.23,1.2,7.72,7.72,0,0,0,.81,5.77c1.37,2.2,1.92,2.14,3.76.73a1.06,1.06,0,0,0,.2-.17,1.79,1.79,0,0,1,2.06-.48,5.88,5.88,0,0,0,2.67.05,1.82,1.82,0,0,1,1.3,0c2.32,1.14,4.65,2.25,6.95,3.41a3.27,3.27,0,0,0,2.87.33A1.67,1.67,0,0,1,57,328c.67.72,1.09.37,1.73,0,1.29-.78,2-2.33,3.84-2.48a6.49,6.49,0,0,1,1.92-.09c.85.19,1.7.43,2.7.69-.25-.62-.67-1.14-.55-1.44A3.63,3.63,0,0,1,67.94,323c1.58-.88,3.26-1.56,4.9-2.3.48-.21,1-.34,1.6-.55-.34-.52-.64-.92-.88-1.36a2.24,2.24,0,0,1-.35-1c0-1.24,0-2.49,0-3.74a1.08,1.08,0,0,1,.35-.73c1.48-1.23,3-2.37,4.48-3.66,1.14-1,2.25-2,3.93-1.67,0,0,0,0,.19-.12l-.57-1.12c1-.85,2.18-.76,3.36-.76a28.29,28.29,0,0,0,4.79-.13c1.71-.29,3.34-1,5-1.43a2,2,0,0,0,1.8-2c0-.79.37-1.44,1.17-1.55-.19-1.37-.42-2.65-.54-3.94A1.69,1.69,0,0,1,98.38,295a13.9,13.9,0,0,0,3.38-1.32c1-.69,1.61-.34,2.34.23a7.36,7.36,0,0,1,.75.63,4.39,4.39,0,0,0,3.62,1.56,1,1,0,0,1,1.18.94c.09.4.21.94.49,1.1A26.55,26.55,0,0,0,114,300c1.69.61,2.43.23,3.3-1.35.1-.18.2-.36.31-.54a.58.58,0,0,1,1-.12c.2.18.35.41.54.6a1.13,1.13,0,0,0,1.54.1c.38-.26,1-.73.92-1-.14-.88.39-.69.86-.76a11,11,0,0,0,2.77-.53,13,13,0,0,0,3.13-1.86,1.54,1.54,0,0,1,2.17-.05c1.58,1.1,3.21,2.13,4.8,3.21a.92.92,0,0,1,.26.52c.31,1.17.56,2.36.92,3.52a5.88,5.88,0,0,1-.09,4.67c0,.05,0,.16.06.31,1-.2,1.28.34,1.35,1.21a1.07,1.07,0,0,0,.51.76,1.17,1.17,0,0,1,.77,1.4,1.06,1.06,0,0,0,.69,1.21c.48.23,1,.41,1.44.68a2.25,2.25,0,0,1,.73.71c1,1.49,1.82,3.05,2.86,4.48s2.28,2.81,3.47,4.18a1.37,1.37,0,0,0,.82.31c1.74.19,3.46.37,4,2.52a2.67,2.67,0,0,0,.48.95,2.83,2.83,0,0,0,1,1c.74.3,1.14.67.67,1.69a14.65,14.65,0,0,1,1.78-.57c.86-.15.8.73,1.13,1.15a1.42,1.42,0,0,1-.31,2.23,17.73,17.73,0,0,0,1.89,1.29c.74.38,1.55.6,2.31.93.25.1.57.31.63.53.59,2.15,1.14,4.3,1.68,6.45.37,1.48,0,2.13-1.45,2.63l-.49.14a2.13,2.13,0,0,1-1.26,2.32c-.81.16-1.61.41-2.43.49a7.07,7.07,0,0,1-1.89-.11,11.27,11.27,0,0,0-1.74-.42,21.75,21.75,0,0,0-3,.37,4.18,4.18,0,0,1-4.24-1.42c-.44-.54-.84-.49-1.4-.23-1.59.73-1.66.7-2.85-.7-.68.79-1.34,1.57-2,2.35-.07.08,0,.3,0,.41a12.2,12.2,0,0,0,1.37,1.93c1.05,1,2.88.88,3.67,2.34,0,0,.06,0,.09,0,.42.3.84.62,1.28.91a14.82,14.82,0,0,0,1.34.89c.73.39,1.86.55,2.17,1.15a5.16,5.16,0,0,0,3.63,3,.48.48,0,0,1,.16.08.9.9,0,0,0,1.38-.26c.49-.63,1-1.29,1.41-1.95a.56.56,0,0,0,.07-.4c-.23-.74-.51-1.46-.71-2.2a1.55,1.55,0,0,1,0-1.1c.77-1.21,1.63-2.37,2.3-3.32.64.3,1.13.55,1.63.77.19.08.44,0,.6.14,1,.64,1.6.08,2.24-.53s1.43-1.41,2.14-2.12a.58.58,0,0,0,.17-.29c.16-.83.31-1.66.47-2.47a22.25,22.25,0,0,0,2.3-.47,2.4,2.4,0,0,0,.85-4.22,11.28,11.28,0,0,0-2.24-1.41.77.77,0,0,1-.51-.95,6.9,6.9,0,0,1,3.24-5,3.63,3.63,0,0,1,1.09-.24c-.66,1-.16,1.18.47,1.38a23.53,23.53,0,0,1,2.23.89,1.15,1.15,0,0,1,.5.45c.37.75.69,1.52,1.07,2.27a.88.88,0,0,0,.47.33c.41.18.84.31,1.43.52a10.46,10.46,0,0,0,1-1.94c.09-.27-.38-.74-.59-1.12a12.08,12.08,0,0,1-1.26-2.27,2.91,2.91,0,0,0-1.53-1.74l-3.39-1.82a3.43,3.43,0,0,1-.43-.32c-.8-.6-1.57-1.24-2.4-1.81-1-.71-2.18-1.32-3.22-2.06-1.6-1.14-1.55-1.33.19-2.2.24-.12.58-.53.52-.66a1.56,1.56,0,0,0-.73-.77c-1.41-.68-3-.56-4.48-.73A1.71,1.71,0,0,1,161,318c-.44-.31-.86-.64-1.3-1a3.5,3.5,0,0,1-.89-.64,18.25,18.25,0,0,0-1.45-2.33,8,8,0,0,1-2.37-5.61,6.7,6.7,0,0,0-.15-1.68,5.17,5.17,0,0,0-.91-2c-1.52-1.67-3.16-3.22-4.75-4.82-.21-.2-.49-.41-.54-.66-.21-1-.3-2-.5-3a.77.77,0,0,1,.63-1,1.5,1.5,0,0,0,.82-2.37c-.2-.3-.42-.59-.6-.89a1.62,1.62,0,0,1,0-1.9,6.23,6.23,0,0,0,5.2-1.3c.44,0,.89,1.24,1.72.38.84.93.85,1-.13,1.49a.66.66,0,0,0-.37.93c.37,1.1.67,2.21,1,3.32.16.55.31,1.1.47,1.65l.26.07c.53-.82,1.06-1.62,1.56-2.44.37-.6.72-1.18,1.57-1.08a1.75,1.75,0,0,1,1.56,1.5,15.59,15.59,0,0,1,.37,2.73,2.92,2.92,0,0,0,2,2.91,3.78,3.78,0,0,1-.55.62c-.8.54-.63,1,0,1.64a23.31,23.31,0,0,0,2.15,2.37,2.64,2.64,0,0,1,1,2.54c0,.05.06.1.13.23a10,10,0,0,1,2.25,0,5.73,5.73,0,0,1,2.58,1.06,36.28,36.28,0,0,1,3,3.63h0c0,.24.09.48.14.77l.47-.23a5.71,5.71,0,0,0,.75.74,31.75,31.75,0,0,1,7,6.52c.79.93,1.44,1.92,2.83,1.58a1.18,1.18,0,0,1-.51,1.47,1.87,1.87,0,0,0-.6,1.14c-.08.88,0,1.78,0,2.67a2.88,2.88,0,0,1-.4,1,3.3,3.3,0,0,0-.63,2.33,4.31,4.31,0,0,1-.14,1.41l-.32.09c.54.49,1.13.94,1.63,1.48a5.41,5.41,0,0,1,1.43,1.86c.61,2.05,1.94,3.65,3,5.41a10.69,10.69,0,0,0,1.75,2c.33.32.51.57.22,1-.4.58-.07,1,.43,1.07,1,.13,1.1.81,1.23,1.55.06.32.16.64.25.95.18.61.51.78,1.13.48a5,5,0,0,1,1.3-.21,20.62,20.62,0,0,1-2.24,3,.61.61,0,0,0,0,1c.58.59,1.16,1.19,1.77,1.76a1.85,1.85,0,0,1,.68,2.32c-.5,1.18.08,2.34.35,3.47.08.33.76.53,1.25.84l1-2.34c1.57,1.24,1.45,3.21,2.5,4.81.28-.87.49-1.54.7-2.21s.56-.72,1-.39,1.05.95,1.58,1.42c.38.36.77.71,1.16,1.06.08-3-1.49-5.36-2.38-7.9.76.13,1.54.29,2.33.38s1.58.14,2.37.2c.06-.07.11-.15.17-.23a25.51,25.51,0,0,1-2.36-3l-.12-.22c.58-.2,1.15-.35,1.68-.59a1.29,1.29,0,0,1,1.92.7,12.34,12.34,0,0,0,1.43,1.77c.23-1.23.46-2.2.56-3.19a1.68,1.68,0,0,0-.39-1.15c-1-1.13-2.12-2.11-3.81-2-.28-2.44-2.33-2-3.83-2.51a9.58,9.58,0,0,1,1.51-.58c.69-.22.84-.63.26-1.06-.89-.66-.72-1.25-.05-1.95l1.94,1.47.33-.28a5.3,5.3,0,0,0-.46-1c-.66-.9-1.38-1.77-2.06-2.66a5.21,5.21,0,0,1-1.15-1.64c-.35-1.37-.47-2.8-.69-4.2l1.68-.53c-.5,1.41-.26,1.67,1.88,2.41l.69,2c.72-.48,1.33,1,2.13.07-.35-.67-1.46-.59-1.41-1.57,1.62-.4,1.87,1.46,3.05,1.83a1.33,1.33,0,0,0-.39-1.72,4.17,4.17,0,0,1-.69-.55c-.13-.15-.11-.41-.16-.63.18,0,.4-.12.55-.06.63.25,1.24.55,1.86.83l1,.49.19-.29c-1.57-.73-3.21-1.39-3.84-3.31.35-.09.7-.3,1-.24a7.26,7.26,0,0,0,4.56-1.1,6.29,6.29,0,0,1,5.63-.46c.1,0,.24,0,.35.06.69.28,1.5.44,1.67,1.36s.8,1.15,1.64,1l1.77-.43.13.25L224,333a2,2,0,0,0-.68,2.86,2.54,2.54,0,0,0,.56-.77c1-2.09,3-3,5-3.91a2.52,2.52,0,0,0,1.52-1.74.73.73,0,0,1,.85-.67c1.07,0,2.14,0,3.2-.11,1.7-.15,3.39-.38,5.11-.58a7.25,7.25,0,0,0,0-1.43,1.45,1.45,0,0,0-.58-.89,14.89,14.89,0,0,0-2.45-.88,3.53,3.53,0,0,1-2.79-2.38,36.26,36.26,0,0,0-1.86-4.13,1.3,1.3,0,0,0-.37-.49c-.72-.53-.73-.83.12-1.17a1.37,1.37,0,0,0,.92-1.52c0-1.12.1-2.25.17-3.37a.66.66,0,0,1,.83-.68c.27,0,.54,0,.8,0,1,.17,1.41-.37,1.48-1.21a35.08,35.08,0,0,0,.11-3.55c0-1.51,0-3,1.19-4.13.05-.05,0-.16.07-.28h-.57c.09-.19.12-.37.22-.42a36.11,36.11,0,0,1,3.36-1.66c.48-.2.68-.42.69-.86,0-1.39,0-2.78,0-4.17,0-.37-.05-.74-.08-1.11l.28.15,1.49-1.79c0-.16.16-.21.3-.19.84.17,1.2-.24,1.44-1s.67-1.58,1-2.39c.49-1.37,1.16-2.51,2.82-2.61.11,0,.23-.12.33-.11a4.69,4.69,0,0,1,1.42.18,22.35,22.35,0,0,1,2.09,1.14l-.54.83a17.47,17.47,0,0,1,2.85.82,3,3,0,0,0,2.86-.27,4.22,4.22,0,0,0,1-.62c.55-.56,1-.34,1.43.12a4.62,4.62,0,0,0,.86.73,3.12,3.12,0,0,0,.77.22,3.32,3.32,0,0,1-.61.8,11.48,11.48,0,0,0-1.69.94c-1.06,1-2,2.12-3.17,3.34.77.29,1.4.59,2.07.78,1,.28,2.09.46,3.12.73.27.08.7.33.71.53.11,1.25.82,2.56-.27,3.7a3.37,3.37,0,0,0,5.09-1.16,1.41,1.41,0,0,1,1.23-1.05c.44-.06.85-.28,1.29-.33a2.71,2.71,0,0,0,2.13-1.69,5.65,5.65,0,0,0,.44-1c.25-.83.73-.77,1.35-.42.35.19.77.48,1.11.43,1-.16,1.94-.48,2.71-.68.27-1.27.51-2.38.75-3.52-.71.12-1.51.18-2.28.38-1,.27-2.26.13-2.88,1.32,0,0-.11,0-.29.11-.54-.34-1.45-.58-1.7-1.12a26,26,0,0,0-1.53-2.33,6.3,6.3,0,0,1-.45-1.24c1-1.34,2.09-2.7,3.17-4a1.9,1.9,0,0,1,.94-.63c1.32-.28,2.63-.54,3.38-1.87l1.23.57.08-.05c.81-1,1.13-2.18,2.76-2.58,1.41-.35,2.66-1.55,4.16-2.05a12.56,12.56,0,0,0,2.11-1.12,15.42,15.42,0,0,1,1.7-1c.9-.37,1.19-.16,1.45.88-1.14.77-2.26,1.59-3.44,2.3-.72.42-1.27.86-1.09,1.88l-3,.49a4.17,4.17,0,0,0,3.42,3,3.78,3.78,0,0,1-.38.55,10.86,10.86,0,0,0-2.26,3.08,2,2,0,0,0,0,2c.18.36.44.69.75,1.17-1,.33-1.9.7-2.84.91-.28.07-.66-.31-1-.49a.91.91,0,0,0-1.4.68c-.1.41-.26.8-.43,1.33a7.28,7.28,0,0,0,2,.6,3.7,3.7,0,0,1,2.92,1.71c.52.67,1,.76,1.63.36a.92.92,0,0,1,1.42.31,3.34,3.34,0,0,0,1.6,1.38,13,13,0,0,1,4.35,1.28,16,16,0,0,1,2.31,1.27,17.09,17.09,0,0,0,5.54,2.9c1.12.42,2.34.55,3.47.93.84.29,1.56.92,2.4,1.15,1.39.37,1.8,1.46,2.26,2.57.08.19.14.39.22.61,1.34.07,2.68.21,4,.2,4.66,0,9.32-.11,14-.15a2.77,2.77,0,0,1,1.17.26c2,1,3.85,2.12,5.88,2.89,1.85.69,3.84,1,5.69,1.79a6,6,0,0,0,2.33.64c2.16,0,4.31-.26,6.47-.39a1.72,1.72,0,0,1,.81.15c1.51.69,3,1.45,4.51,2.09,1.25.53,1.86.07,1.77-1.29a22.51,22.51,0,0,0-.45-2.81,2.34,2.34,0,0,1,.49-2c.31-.4.6-.82,1-1.39h3.08a3.82,3.82,0,0,0-4.43-1.74,1.44,1.44,0,0,1-1.89-.63,4.8,4.8,0,0,0-1.1-.95c-.35-.25-.78-.4-1.11-.67-1.08-.89-2.07-1.89-3.2-2.69-.62-.43-1.11-.74-.83-1.41-1.91-1.06-3.7-2.17-5.6-3.08a4.43,4.43,0,0,1-2.27-3.2,49.28,49.28,0,0,1-.87-5c-.08-.48-.15-1-.23-1.48-1.42.54-1.48.58-2.16-.62a2.44,2.44,0,0,0-1.68-1.24c-.79-.2-1.55-.54-2.34-.82.51-1.78.67-3.56,1.82-5,.13-.18.06-.51.1-.76.24-1.26-.1-2.77,1.47-3.47.07,0,.07-.19.11-.33l-.79-.15c.48-.38.81-.83,1.2-.91,1.65-.32,1.72-2,2.65-2.94.05,0-.06-.22,0-.32s.08-.58.24-.67c.58-.34,1.2-.59,1.73-.84.11-.48.2-.9.34-1.5l-.65-.68c.74-.52,1.45-.95,2.08-1.48a11.81,11.81,0,0,0,1.6-1.64c.47-.58.78-1.28,1.24-1.87s1.11-1.1,1.52-1.74c.54-.85.93-1.8,2.19-1.65,0-.27-.05-.39-.08-.5-.89-2.75-1.76-5.5-2.67-8.23a20.76,20.76,0,0,1-1.13-2.8,6.83,6.83,0,0,0-2-3.4c-1.89-2.09-3.74-4.22-5.6-6.34a1.18,1.18,0,0,1-.28-.62c-.22-2.33-.41-4.65-.6-6.85l1-.89c.23-.22.41-.55.69-.67,1.76-.8,3-2.25,4.49-3.44.14-.11.26-.31.41-.32,1.19-.15,1.65-1.33,2.63-1.8.82-.39,1.36-1.19,2.36-1.43,2.19-.54,4.35-1.25,6.5-1.95a38.69,38.69,0,0,1,8.07-1.29c1.75-.17,3.6-.15,4.92-1.91,1.33,1.66,3.15,1.23,4.88,1.25,1.12,0,1.38-.25,1.58-1.34a1.1,1.1,0,0,1,.52-.76,9.14,9.14,0,0,0,4.74-3.23A2.28,2.28,0,0,0,378.25,209.19ZM145.63,174.77c.36-1.17,1.4-1.58,3.58-1.22Zm3.06-11.25c.2-.77.77-.82,1.88,0Zm2,6.74-.56-1.38.19-.17,1.2.46Zm2.52-8.71-.21,0v-1.78C154.12,160.36,153.22,161,153.17,161.55Zm7.12,51.07c0,.17-.26.28-.4.42-.11-.17-.35-.44-.31-.49a7.83,7.83,0,0,1,.83-.9A5.15,5.15,0,0,1,160.29,212.62Zm8.56-58.79c-.74.26-1.24.61-.77,1.53l-.18.14-1.41-.54-.08-.27,3.38-1.67.15.28A11,11,0,0,1,168.85,153.83Zm.7-1.36-.23-.08c.11-.24.16-.58.35-.69a4.61,4.61,0,0,1,1.11-.34l.08.24Zm17.59,35.3a19.86,19.86,0,0,1,1.3,1.77c0,.08-.41.62-.66.65a4.75,4.75,0,0,1-1.38-.2l.14-.22-.68-1.29C186.2,188.4,187,189.21,187.14,187.77Zm-103.7,86.5-.66-3.47.34-.08c.22,1.16.44,2.32.67,3.48Zm65.17-70.41a3,3,0,0,1,0-1.09c.5-1.2,1.1-1.45,2.36-1.18a19,19,0,0,0,1.9.22c-.29.14-.42.25-.54.25-.8,0-1.51.06-1.77,1,0,.14-.38.22-.59.3C149.59,203.53,149.19,203.66,148.61,203.86Zm20.22,26.6a11.21,11.21,0,0,1-1.48-1,1.54,1.54,0,0,1,2.05.06c.18.14.18.5.27.76C169.39,230.36,169,230.56,168.83,230.46Zm33.92,117.69c.34,1.1,1.35.87,2.19,1.11-.42,1.23-1.05,1.56-2.2,1a27.07,27.07,0,0,1-3.62-2.15c.6-.06,1.2-.16,1.8-.19a14.05,14.05,0,0,1,1.45.05C202.5,348,202.72,348.06,202.75,348.15ZM243.8,182.76c-1,.16-2,.28-2.93.5a1,1,0,0,0-.54.68,4,4,0,0,0,.07,1.17,1.35,1.35,0,0,1-1.79-.93c-.42-1-.85-2-1.24-3.06a7.76,7.76,0,0,0-2.87-3.65,8,8,0,0,1-1-1.06c1.77-.8,1.77-.8,1.44-2.18.82-.43,1.91-.62,1.95-2,1.57,1,3,1.95,4.55,2.8,1.2.66,2.32,1.28,2.7,2.78a12.06,12.06,0,0,0,1,2.16C243.56,180.46,243.88,181.67,243.8,182.76Zm7.58-19.34-1.51.64-.61-1.64Zm-.59,122a4.4,4.4,0,0,0,1-.22c.22-.12.36-.39.57-.64.2.59.56.92,1.25.66.48-.18,1-.29,1.57-.46C254.78,286.14,252.79,286.42,250.79,285.4Zm5.85-110.89c-.38.43-.73.9-1.14,1.43l-.6,0c-.47,0-.6-.36-.33-.66.49-.53.17-.93-.1-1.34a8.25,8.25,0,0,0-4-3l-.66-.27c.74-1.74-.25-3.25-.71-4.84l.25-.14,1.62,2.21.23-.07c-.05-.3-.11-.59-.19-1l1.28.66c1.37-1.36-.61-2.43-.4-4,.37.38.76.59.84.89.27,1,.41,2,.62,2.92a2.43,2.43,0,0,0,.28.81c1,1.57,2,3.16,3.12,4.66A1.18,1.18,0,0,1,256.64,174.51Zm12.74,111.17c-.37.62-.77,1.22-1.16,1.83l-.85-.65c.47-1,2-.92,1.69-2.28C269.7,285,269.74,285.09,269.38,285.68Z" data-svg-origin="22.040002822875977 86.1541976928711" style="transform-origin: 0px 0px; stroke-dashoffset: 0; stroke-dasharray: none;"></path><path d="M92.15,318.45l1.82.92c-.82,1.1-1.57,2.19-2.94,2.58a.89.89,0,0,1-.78-.22c-.5-.75-.88-1.58-1.4-2.3a7.21,7.21,0,0,0-1.34-1.11c.83-.23,1.64-.46,2.46-.67s1.71-.44,2.77-.71C92.53,317.47,92.36,317.9,92.15,318.45Z" data-svg-origin="87.51000213623047 316.9400329589844" style="transform-origin: 0px 0px; stroke-dashoffset: 0; stroke-dasharray: none;"></path><path d="M188.45,121.64l-.87.77a2.67,2.67,0,0,1,2-2.46c-.14-2.14.14-2.61,1.63-2.57-.07.47-.13.94-.21,1.58l1-.66c.14.59.28,1.13.39,1.56-.64.6-1.23,1.12-1.78,1.69C189.77,122.43,189.49,122.46,188.45,121.64Z" data-svg-origin="187.5800018310547 117.3777084350586" style="transform-origin: 0px 0px; stroke-dashoffset: 0; stroke-dasharray: none;"></path><path d="M174.55,312.35a.85.85,0,0,1-1.24,0,6,6,0,0,1-1-.77c.28.07.56.13.82.22l1.46.53Z" data-svg-origin="172.30999755859375 311.58001708984375" style="transform-origin: 0px 0px; stroke-dashoffset: 0; stroke-dasharray: none;"></path></g></svg>