<svg class="button-outline__icon" width="20" height="19" viewBox="0 0 20 19" xmlns="http://www.w3.org/2000/svg"><g fill="currentColor" fill-rule="nonzero" stroke="currentColor" stroke-width=".3"><path d="M10 18.496c2.305 0 4.61-.878 6.364-2.632 3.292-3.292 3.495-8.52.612-12.051a1.517 1.517 0 001.737-1.504c0-.407-.158-.789-.446-1.076a1.512 1.512 0 00-1.076-.446 1.519 1.519 0 00-1.504 1.737c-3.531-2.883-8.76-2.68-12.05.612-3.51 3.51-3.51 9.219 0 12.728A8.972 8.972 0 0010 18.496zM16.433 1.55a1.068 1.068 0 011.516 0 1.073 1.073 0 01-1.516 1.516 1.073 1.073 0 010-1.516zM3.954 3.454A8.523 8.523 0 0110 .954c2.19 0 4.379.833 6.046 2.5 3.333 3.334 3.333 8.758 0 12.092-3.334 3.333-8.758 3.333-12.092 0-3.333-3.334-3.333-8.758 0-12.092z"></path><path d="M9.803 16.788a.22.22 0 00.07.014c.02 0 .038-.006.056-.011l.071.002c1.948 0 3.78-.759 5.157-2.136A7.245 7.245 0 0017.293 9.5c0-1.948-.759-3.78-2.136-5.157A7.245 7.245 0 0010 2.207c-1.948 0-3.78.759-5.157 2.136A7.245 7.245 0 002.707 9.5c0 1.948.759 3.78 2.136 5.157a7.24 7.24 0 004.96 2.13zM5.098 4.728l.825.825a.224.224 0 00.318 0 .225.225 0 000-.318l-.82-.82A6.786 6.786 0 019.65 2.666V3.88a.225.225 0 00.45 0V2.66a6.79 6.79 0 014.547 1.818l-.839.839a.225.225 0 10.318.318l.84-.84a6.788 6.788 0 011.87 4.377h-1.186a.225.225 0 000 .45h1.19a6.789 6.789 0 01-1.754 4.456l-.777-.777a.225.225 0 10-.318.318l.782.783A6.793 6.793 0 0110.1 16.34v-1.025a.225.225 0 00-.45 0v1.019a6.788 6.788 0 01-4.354-1.869l.745-.745a.225.225 0 10-.318-.318l-.744.744A6.79 6.79 0 013.16 9.622h1.081a.225.225 0 000-.45H3.165a6.79 6.79 0 011.933-4.444z"></path><path d="M8.235 9.605l-1.459 2.841a.225.225 0 00.303.303L10 11.25l2.92 1.5a.224.224 0 00.263-.04.225.225 0 00.04-.263l-1.458-2.84 1.626-3.169a.225.225 0 00-.303-.303L10 7.72 6.912 6.134a.224.224 0 00-.303.303l1.626 3.168zm1.662-1.432a.224.224 0 00.206 0l2.568-1.319-1.36 2.648a.225.225 0 000 .206l1.193 2.321-2.401-1.233a.224.224 0 00-.206 0l-2.4 1.233 1.191-2.321a.225.225 0 000-.206l-1.36-2.648 2.57 1.32z"></path></g></svg>