<svg class="  logo" width="66" height="16" viewBox="0 0 66 16" xmlns="http://www.w3.org/2000/svg">
<g fill-rule="nonzero" fill="none" >
<path fill="currentColor" d="M19.52 3.449h-3.027V13.53h3.027zM43.114 3.333c-.201-.031-.428-.044-.642-.044-1.822 0-3.103.77-4.024 2.314l-.713-2.075h-2.291v10.003h3.004v-5.93c.8-1.067 1.86-1.562 3.382-1.562.44 0 .9.039 1.281.098V3.333h.003zM52.91 3.333a4.34 4.34 0 00-.639-.044c-1.821 0-3.103.77-4.024 2.314l-.712-2.075h-2.292v10.003h3.004v-5.93c.801-1.067 1.86-1.562 3.382-1.562.441 0 .9.039 1.281.098V3.333z"></path><path d="M3.696 13.545c0 1.038-.828 1.882-1.848 1.882S0 14.587 0 13.545c0-1.038.826-1.882 1.848-1.882 1.02 0 1.848.844 1.848 1.882z" fill="#FC6220"></path><path fill="currentColor" d="M10.715 0v8.696L4.147 0H.42v10.103h3.001v-6.36l7.393 9.788h2.902V0zM55.254 3.766v2.37s6.819-2.254 6.819 2.096c-.968-.538-2.4-.876-3.774-.876-2.541 0-3.995 1.155-3.995 3.206 0 1.993 1.39 3.21 3.65 3.21 1.736 0 3.229-.738 4.116-2.034l.713 1.793h2.314v-5.58c.003-6.855-9.843-4.185-9.843-4.185zm3.753 7.773c-1.05 0-1.616-.4-1.616-1.095 0-.737.627-1.137 1.837-1.137.909 0 1.997.22 2.845.598-.786.897-1.895 1.634-3.066 1.634zM22.795 3.766v2.37s6.82-2.254 6.82 2.096c-.969-.538-2.402-.876-3.774-.876-2.542 0-3.996 1.155-3.996 3.206 0 1.993 1.391 3.21 3.651 3.21 1.736 0 3.228-.738 4.116-2.034l.712 1.793h2.315v-5.58c.002-6.855-9.844-4.185-9.844-4.185zm3.753 7.773c-1.05 0-1.616-.4-1.616-1.095 0-.737.627-1.137 1.838-1.137.908 0 1.996.22 2.844.598-.785.897-1.897 1.634-3.066 1.634z"></path></g></svg>